<mxfile host="app.diagrams.net" modified="2021-05-10T20:23:54.988Z" agent="5.0 (Windows NT 6.3; Win64; x64) AppleWebKit/537.36 (KHTML, like Gecko) Chrome/90.0.4430.93 Safari/537.36 OPR/76.0.4017.107" etag="Z8IIO6jjHlMhuMsdDUr4" version="14.6.11" type="github">
  <diagram id="u06LsnoRnk0gHSpqk0oA" name="Page-1">
    <mxGraphModel dx="1185" dy="663" grid="0" gridSize="10" guides="1" tooltips="1" connect="1" arrows="1" fold="1" page="1" pageScale="1" pageWidth="865" pageHeight="519" background="#CCCCCC" math="0" shadow="0">
      <root>
        <mxCell id="0" />
        <mxCell id="1" parent="0" />
        <mxCell id="Q06Qo3ESc_57fdqLXNgT-23" value="&lt;div&gt;&lt;span style=&quot;font-size: 16px&quot;&gt;DD.MM.YYYY&lt;/span&gt;&lt;/div&gt;" style="text;html=1;resizable=0;autosize=1;align=right;verticalAlign=middle;points=[];fillColor=none;strokeColor=none;rounded=0;" parent="1" vertex="1">
          <mxGeometry x="754" y="11" width="111" height="19" as="geometry" />
        </mxCell>
        <mxCell id="Q06Qo3ESc_57fdqLXNgT-25" value="&lt;font style=&quot;font-size: 16px&quot;&gt;HH:MM&lt;/font&gt;" style="text;html=1;resizable=0;autosize=1;align=right;verticalAlign=middle;points=[];fillColor=none;strokeColor=none;rounded=0;" parent="1" vertex="1">
          <mxGeometry x="801" y="31" width="64" height="19" as="geometry" />
        </mxCell>
        <mxCell id="Q06Qo3ESc_57fdqLXNgT-28" value="" style="shape=image;imageAspect=0;aspect=fixed;verticalLabelPosition=bottom;verticalAlign=top;image=data:image/png,iVBORw0KGgoAAAANSUhEUgAAAPEAAAA9CAYAAAB84Y/GAAAABGdBTUEAALGeYUxB9wAAACBjSFJNAACHEAAAjBIAAP1NAACBPgAAWesAARIPAAA85gAAGc66ySIyAAABK2lDQ1BQaG90b3Nob3AgSUNDIHByb2ZpbGUAACjPY2BgMnB0cXJlEmBgyM0rKQpyd1KIiIxSYD/PwMbAzAAGicnFBY4BAT4gdl5+XioDBvh2jYERRF/WBZnFQBrgSi4oKgHSf4DYKCW1OJmBgdEAyM4uLykAijPOAbJFkrLB7A0gdlFIkDOQfQTI5kuHsK+A2EkQ9hMQuwjoCSD7C0h9OpjNxAE2B8KWAbFLUitA9jI45xdUFmWmZ5QoGFpaWio4puQnpSoEVxaXpOYWK3jmJecXFeQXJZakpgDVQtwHBoIQhaAQ0wBqtNBkoDIAxQOE9TkQHL6MYmcQYgiQXFpUBmUyMhkT5iPMmCPBwOC/lIGB5Q9CzKSXgWGBDgMD/1SEmJohA4OAPgPDvjkAwMZP/eeaqagAAAAJcEhZcwAADsQAAA7EAZUrDhsAAEOiaVRYdFhNTDpjb20uYWRvYmUueG1wAAAAAAA8P3hwYWNrZXQgYmVnaW49Iu+7vyIgaWQ9Ilc1TTBNcENlaGlIenJlU3pOVGN6a2M5ZCI/Pgo8eDp4bXBtZXRhIHhtbG5zOng9ImFkb2JlOm5zOm1ldGEvIiB4OnhtcHRrPSJBZG9iZSBYTVAgQ29yZSA1LjYtYzExMSA3OS4xNTgzMjUsIDIwMTUvMDkvMTAtMDE6MTA6MjAgICAgICAgICI+CiAgIDxyZGY6UkRGIHhtbG5zOnJkZj0iaHR0cDovL3d3dy53My5vcmcvMTk5OS8wMi8yMi1yZGYtc3ludGF4LW5zIyI+CiAgICAgIDxyZGY6RGVzY3JpcHRpb24gcmRmOmFib3V0PSIiCiAgICAgICAgICAgIHhtbG5zOnhtcD0iaHR0cDovL25zLmFkb2JlLmNvbS94YXAvMS4wLyIKICAgICAgICAgICAgeG1sbnM6cGhvdG9zaG9wPSJodHRwOi8vbnMuYWRvYmUuY29tL3Bob3Rvc2hvcC8xLjAvIgogICAgICAgICAgICB4bWxuczpkYz0iaHR0cDovL3B1cmwub3JnL2RjL2VsZW1lbnRzLzEuMS8iCiAgICAgICAgICAgIHhtbG5zOnhtcE1NPSJodHRwOi8vbnMuYWRvYmUuY29tL3hhcC8xLjAvbW0vIgogICAgICAgICAgICB4bWxuczpzdEV2dD0iaHR0cDovL25zLmFkb2JlLmNvbS94YXAvMS4wL3NUeXBlL1Jlc291cmNlRXZlbnQjIgogICAgICAgICAgICB4bWxuczpzdFJlZj0iaHR0cDovL25zLmFkb2JlLmNvbS94YXAvMS4wL3NUeXBlL1Jlc291cmNlUmVmIyIKICAgICAgICAgICAgeG1sbnM6dGlmZj0iaHR0cDovL25zLmFkb2JlLmNvbS90aWZmLzEuMC8iCiAgICAgICAgICAgIHhtbG5zOmV4aWY9Imh0dHA6Ly9ucy5hZG9iZS5jb20vZXhpZi8xLjAvIj4KICAgICAgICAgPHhtcDpDcmVhdG9yVG9vbD5BZG9iZSBQaG90b3Nob3AgQ0MgMjAxNSAoV2luZG93cyk8L3htcDpDcmVhdG9yVG9vbD4KICAgICAgICAgPHhtcDpDcmVhdGVEYXRlPjIwMTctMTAtMDNUMTY6MzM6MzErMDM6MDA8L3htcDpDcmVhdGVEYXRlPgogICAgICAgICA8eG1wOk1ldGFkYXRhRGF0ZT4yMDE3LTEwLTA0VDE2OjI2OjM1KzAzOjAwPC94bXA6TWV0YWRhdGFEYXRlPgogICAgICAgICA8eG1wOk1vZGlmeURhdGU+MjAxNy0xMC0wNFQxNjoyNjozNSswMzowMDwveG1wOk1vZGlmeURhdGU+CiAgICAgICAgIDxwaG90b3Nob3A6Q29sb3JNb2RlPjM8L3Bob3Rvc2hvcDpDb2xvck1vZGU+CiAgICAgICAgIDxwaG90b3Nob3A6SUNDUHJvZmlsZT5BZG9iZSBSR0IgKDE5OTgpPC9waG90b3Nob3A6SUNDUHJvZmlsZT4KICAgICAgICAgPHBob3Rvc2hvcDpUZXh0TGF5ZXJzPgogICAgICAgICAgICA8cmRmOkJhZz4KICAgICAgICAgICAgICAgPHJkZjpsaSByZGY6cGFyc2VUeXBlPSJSZXNvdXJjZSI+CiAgICAgICAgICAgICAgICAgIDxwaG90b3Nob3A6TGF5ZXJOYW1lPtCh0JDQn9Ck0JjQoDwvcGhvdG9zaG9wOkxheWVyTmFtZT4KICAgICAgICAgICAgICAgICAgPHBob3Rvc2hvcDpMYXllclRleHQ+0KHQkNCf0KTQmNCgPC9waG90b3Nob3A6TGF5ZXJUZXh0PgogICAgICAgICAgICAgICA8L3JkZjpsaT4KICAgICAgICAgICAgICAgPHJkZjpsaSByZGY6cGFyc2VUeXBlPSJSZXNvdXJjZSI+CiAgICAgICAgICAgICAgICAgIDxwaG90b3Nob3A6TGF5ZXJOYW1lPtCc0J7QodCa0J7QktCh0JrQmNCZINCX0JDQktCe0JQ8L3Bob3Rvc2hvcDpMYXllck5hbWU+CiAgICAgICAgICAgICAgICAgIDxwaG90b3Nob3A6TGF5ZXJUZXh0PtCc0J7QodCa0J7QktCh0JrQmNCZINCX0JDQktCe0JQ8L3Bob3Rvc2hvcDpMYXllclRleHQ+CiAgICAgICAgICAgICAgIDwvcmRmOmxpPgogICAgICAgICAgICA8L3JkZjpCYWc+CiAgICAgICAgIDwvcGhvdG9zaG9wOlRleHRMYXllcnM+CiAgICAgICAgIDxkYzpmb3JtYXQ+aW1hZ2UvcG5nPC9kYzpmb3JtYXQ+CiAgICAgICAgIDx4bXBNTTpJbnN0YW5jZUlEPnhtcC5paWQ6ZmIyOTU2OWItNWFmZS04MDQ2LTk4YzMtNzFiYTUxNDAwYzFmPC94bXBNTTpJbnN0YW5jZUlEPgogICAgICAgICA8eG1wTU06RG9jdW1lbnRJRD5hZG9iZTpkb2NpZDpwaG90b3Nob3A6YTA2NDk3NWUtYTkwNy0xMWU3LWFjZmMtZDc1NWI3ZGZjOGE5PC94bXBNTTpEb2N1bWVudElEPgogICAgICAgICA8eG1wTU06T3JpZ2luYWxEb2N1bWVudElEPnhtcC5kaWQ6Y2I5NDQxNDMtM2JiMy1iNDRkLTljZDEtZjRiMzlmYjMyYzRmPC94bXBNTTpPcmlnaW5hbERvY3VtZW50SUQ+CiAgICAgICAgIDx4bXBNTTpIaXN0b3J5PgogICAgICAgICAgICA8cmRmOlNlcT4KICAgICAgICAgICAgICAgPHJkZjpsaSByZGY6cGFyc2VUeXBlPSJSZXNvdXJjZSI+CiAgICAgICAgICAgICAgICAgIDxzdEV2dDphY3Rpb24+Y3JlYXRlZDwvc3RFdnQ6YWN0aW9uPgogICAgICAgICAgICAgICAgICA8c3RFdnQ6aW5zdGFuY2VJRD54bXAuaWlkOmNiOTQ0MTQzLTNiYjMtYjQ0ZC05Y2QxLWY0YjM5ZmIzMmM0Zjwvc3RFdnQ6aW5zdGFuY2VJRD4KICAgICAgICAgICAgICAgICAgPHN0RXZ0OndoZW4+MjAxNy0xMC0wM1QxNjozMzozMSswMzowMDwvc3RFdnQ6d2hlbj4KICAgICAgICAgICAgICAgICAgPHN0RXZ0OnNvZnR3YXJlQWdlbnQ+QWRvYmUgUGhvdG9zaG9wIENDIDIwMTUgKFdpbmRvd3MpPC9zdEV2dDpzb2Z0d2FyZUFnZW50PgogICAgICAgICAgICAgICA8L3JkZjpsaT4KICAgICAgICAgICAgICAgPHJkZjpsaSByZGY6cGFyc2VUeXBlPSJSZXNvdXJjZSI+CiAgICAgICAgICAgICAgICAgIDxzdEV2dDphY3Rpb24+c2F2ZWQ8L3N0RXZ0OmFjdGlvbj4KICAgICAgICAgICAgICAgICAgPHN0RXZ0Omluc3RhbmNlSUQ+eG1wLmlpZDo3ZmU5NDk5ZS01MDk1LTdiNDMtOGI0Zi1mNzE0NzJjNmZlZTk8L3N0RXZ0Omluc3RhbmNlSUQ+CiAgICAgICAgICAgICAgICAgIDxzdEV2dDp3aGVuPjIwMTctMTAtMDNUMTY6MzQ6NTYrMDM6MDA8L3N0RXZ0OndoZW4+CiAgICAgICAgICAgICAgICAgIDxzdEV2dDpzb2Z0d2FyZUFnZW50PkFkb2JlIFBob3Rvc2hvcCBDQyAyMDE1IChXaW5kb3dzKTwvc3RFdnQ6c29mdHdhcmVBZ2VudD4KICAgICAgICAgICAgICAgICAgPHN0RXZ0OmNoYW5nZWQ+Lzwvc3RFdnQ6Y2hhbmdlZD4KICAgICAgICAgICAgICAgPC9yZGY6bGk+CiAgICAgICAgICAgICAgIDxyZGY6bGkgcmRmOnBhcnNlVHlwZT0iUmVzb3VyY2UiPgogICAgICAgICAgICAgICAgICA8c3RFdnQ6YWN0aW9uPnNhdmVkPC9zdEV2dDphY3Rpb24+CiAgICAgICAgICAgICAgICAgIDxzdEV2dDppbnN0YW5jZUlEPnhtcC5paWQ6MDEwOWIyNDQtMjYwZi1jMjRhLWEwNGYtMzdhMDhjMjg4OGE4PC9zdEV2dDppbnN0YW5jZUlEPgogICAgICAgICAgICAgICAgICA8c3RFdnQ6d2hlbj4yMDE3LTEwLTA0VDE2OjI2OjM1KzAzOjAwPC9zdEV2dDp3aGVuPgogICAgICAgICAgICAgICAgICA8c3RFdnQ6c29mdHdhcmVBZ2VudD5BZG9iZSBQaG90b3Nob3AgQ0MgMjAxNSAoV2luZG93cyk8L3N0RXZ0OnNvZnR3YXJlQWdlbnQ+CiAgICAgICAgICAgICAgICAgIDxzdEV2dDpjaGFuZ2VkPi88L3N0RXZ0OmNoYW5nZWQ+CiAgICAgICAgICAgICAgIDwvcmRmOmxpPgogICAgICAgICAgICAgICA8cmRmOmxpIHJkZjpwYXJzZVR5cGU9IlJlc291cmNlIj4KICAgICAgICAgICAgICAgICAgPHN0RXZ0OmFjdGlvbj5jb252ZXJ0ZWQ8L3N0RXZ0OmFjdGlvbj4KICAgICAgICAgICAgICAgICAgPHN0RXZ0OnBhcmFtZXRlcnM+ZnJvbSBhcHBsaWNhdGlvbi92bmQuYWRvYmUucGhvdG9zaG9wIHRvIGltYWdlL3BuZzwvc3RFdnQ6cGFyYW1ldGVycz4KICAgICAgICAgICAgICAgPC9yZGY6bGk+CiAgICAgICAgICAgICAgIDxyZGY6bGkgcmRmOnBhcnNlVHlwZT0iUmVzb3VyY2UiPgogICAgICAgICAgICAgICAgICA8c3RFdnQ6YWN0aW9uPmRlcml2ZWQ8L3N0RXZ0OmFjdGlvbj4KICAgICAgICAgICAgICAgICAgPHN0RXZ0OnBhcmFtZXRlcnM+Y29udmVydGVkIGZyb20gYXBwbGljYXRpb24vdm5kLmFkb2JlLnBob3Rvc2hvcCB0byBpbWFnZS9wbmc8L3N0RXZ0OnBhcmFtZXRlcnM+CiAgICAgICAgICAgICAgIDwvcmRmOmxpPgogICAgICAgICAgICAgICA8cmRmOmxpIHJkZjpwYXJzZVR5cGU9IlJlc291cmNlIj4KICAgICAgICAgICAgICAgICAgPHN0RXZ0OmFjdGlvbj5zYXZlZDwvc3RFdnQ6YWN0aW9uPgogICAgICAgICAgICAgICAgICA8c3RFdnQ6aW5zdGFuY2VJRD54bXAuaWlkOmZiMjk1NjliLTVhZmUtODA0Ni05OGMzLTcxYmE1MTQwMGMxZjwvc3RFdnQ6aW5zdGFuY2VJRD4KICAgICAgICAgICAgICAgICAgPHN0RXZ0OndoZW4+MjAxNy0xMC0wNFQxNjoyNjozNSswMzowMDwvc3RFdnQ6d2hlbj4KICAgICAgICAgICAgICAgICAgPHN0RXZ0OnNvZnR3YXJlQWdlbnQ+QWRvYmUgUGhvdG9zaG9wIENDIDIwMTUgKFdpbmRvd3MpPC9zdEV2dDpzb2Z0d2FyZUFnZW50PgogICAgICAgICAgICAgICAgICA8c3RFdnQ6Y2hhbmdlZD4vPC9zdEV2dDpjaGFuZ2VkPgogICAgICAgICAgICAgICA8L3JkZjpsaT4KICAgICAgICAgICAgPC9yZGY6U2VxPgogICAgICAgICA8L3htcE1NOkhpc3Rvcnk+CiAgICAgICAgIDx4bXBNTTpEZXJpdmVkRnJvbSByZGY6cGFyc2VUeXBlPSJSZXNvdXJjZSI+CiAgICAgICAgICAgIDxzdFJlZjppbnN0YW5jZUlEPnhtcC5paWQ6MDEwOWIyNDQtMjYwZi1jMjRhLWEwNGYtMzdhMDhjMjg4OGE4PC9zdFJlZjppbnN0YW5jZUlEPgogICAgICAgICAgICA8c3RSZWY6ZG9jdW1lbnRJRD54bXAuZGlkOmNiOTQ0MTQzLTNiYjMtYjQ0ZC05Y2QxLWY0YjM5ZmIzMmM0Zjwvc3RSZWY6ZG9jdW1lbnRJRD4KICAgICAgICAgICAgPHN0UmVmOm9yaWdpbmFsRG9jdW1lbnRJRD54bXAuZGlkOmNiOTQ0MTQzLTNiYjMtYjQ0ZC05Y2QxLWY0YjM5ZmIzMmM0Zjwvc3RSZWY6b3JpZ2luYWxEb2N1bWVudElEPgogICAgICAgICA8L3htcE1NOkRlcml2ZWRGcm9tPgogICAgICAgICA8dGlmZjpPcmllbnRhdGlvbj4xPC90aWZmOk9yaWVudGF0aW9uPgogICAgICAgICA8dGlmZjpYUmVzb2x1dGlvbj4zMDAwMDAwLzEwMDAwPC90aWZmOlhSZXNvbHV0aW9uPgogICAgICAgICA8dGlmZjpZUmVzb2x1dGlvbj4zMDAwMDAwLzEwMDAwPC90aWZmOllSZXNvbHV0aW9uPgogICAgICAgICA8dGlmZjpSZXNvbHV0aW9uVW5pdD4yPC90aWZmOlJlc29sdXRpb25Vbml0PgogICAgICAgICA8ZXhpZjpDb2xvclNwYWNlPjY1NTM1PC9leGlmOkNvbG9yU3BhY2U+CiAgICAgICAgIDxleGlmOlBpeGVsWERpbWVuc2lvbj4yNDE8L2V4aWY6UGl4ZWxYRGltZW5zaW9uPgogICAgICAgICA8ZXhpZjpQaXhlbFlEaW1lbnNpb24+MTAxPC9leGlmOlBpeGVsWURpbWVuc2lvbj4KICAgICAgPC9yZGY6RGVzY3JpcHRpb24+CiAgIDwvcmRmOlJERj4KPC94OnhtcG1ldGE+CiAgICAgICAgICAgICAgICAgICAgICAgICAgICAgICAgICAgICAgICAgICAgICAgICAgICAgICAgICAgICAgICAgICAgICAgICAgICAgICAgICAgICAgICAgICAgICAgICAgICAKICAgICAgICAgICAgICAgICAgICAgICAgICAgICAgICAgICAgICAgICAgICAgICAgICAgICAgICAgICAgICAgICAgICAgICAgICAgICAgICAgICAgICAgICAgICAgICAgICAgIAogICAgICAgICAgICAgICAgICAgICAgICAgICAgICAgICAgICAgICAgICAgICAgICAgICAgICAgICAgICAgICAgICAgICAgICAgICAgICAgICAgICAgICAgICAgICAgICAgICAgCiAgICAgICAgICAgICAgICAgICAgICAgICAgICAgICAgICAgICAgICAgICAgICAgICAgICAgICAgICAgICAgICAgICAgICAgICAgICAgICAgICAgICAgICAgICAgICAgICAgICAKICAgICAgICAgICAgICAgICAgICAgICAgICAgICAgICAgICAgICAgICAgICAgICAgICAgICAgICAgICAgICAgICAgICAgICAgICAgICAgICAgICAgICAgICAgICAgICAgICAgIAogICAgICAgICAgICAgICAgICAgICAgICAgICAgICAgICAgICAgICAgICAgICAgICAgICAgICAgICAgICAgICAgICAgICAgICAgICAgICAgICAgICAgICAgICAgICAgICAgICAgCiAgICAgICAgICAgICAgICAgICAgICAgICAgICAgICAgICAgICAgICAgICAgICAgICAgICAgICAgICAgICAgICAgICAgICAgICAgICAgICAgICAgICAgICAgICAgICAgICAgICAKICAgICAgICAgICAgICAgICAgICAgICAgICAgICAgICAgICAgICAgICAgICAgICAgICAgICAgICAgICAgICAgICAgICAgICAgICAgICAgICAgICAgICAgICAgICAgICAgICAgIAogICAgICAgICAgICAgICAgICAgICAgICAgICAgICAgICAgICAgICAgICAgICAgICAgICAgICAgICAgICAgICAgICAgICAgICAgICAgICAgICAgICAgICAgICAgICAgICAgICAgCiAgICAgICAgICAgICAgICAgICAgICAgICAgICAgICAgICAgICAgICAgICAgICAgICAgICAgICAgICAgICAgICAgICAgICAgICAgICAgICAgICAgICAgICAgICAgICAgICAgICAKICAgICAgICAgICAgICAgICAgICAgICAgICAgICAgICAgICAgICAgICAgICAgICAgICAgICAgICAgICAgICAgICAgICAgICAgICAgICAgICAgICAgICAgICAgICAgICAgICAgIAogICAgICAgICAgICAgICAgICAgICAgICAgICAgICAgICAgICAgICAgICAgICAgICAgICAgICAgICAgICAgICAgICAgICAgICAgICAgICAgICAgICAgICAgICAgICAgICAgICAgCiAgICAgICAgICAgICAgICAgICAgICAgICAgICAgICAgICAgICAgICAgICAgICAgICAgICAgICAgICAgICAgICAgICAgICAgICAgICAgICAgICAgICAgICAgICAgICAgICAgICAKICAgICAgICAgICAgICAgICAgICAgICAgICAgICAgICAgICAgICAgICAgICAgICAgICAgICAgICAgICAgICAgICAgICAgICAgICAgICAgICAgICAgICAgICAgICAgICAgICAgIAogICAgICAgICAgICAgICAgICAgICAgICAgICAgICAgICAgICAgICAgICAgICAgICAgICAgICAgICAgICAgICAgICAgICAgICAgICAgICAgICAgICAgICAgICAgICAgICAgICAgCiAgICAgICAgICAgICAgICAgICAgICAgICAgICAgICAgICAgICAgICAgICAgICAgICAgICAgICAgICAgICAgICAgICAgICAgICAgICAgICAgICAgICAgICAgICAgICAgICAgICAKICAgICAgICAgICAgICAgICAgICAgICAgICAgICAgICAgICAgICAgICAgICAgICAgICAgICAgICAgICAgICAgICAgICAgICAgICAgICAgICAgICAgICAgICAgICAgICAgICAgIAogICAgICAgICAgICAgICAgICAgICAgICAgICAgICAgICAgICAgICAgICAgICAgICAgICAgICAgICAgICAgICAgICAgICAgICAgICAgICAgICAgICAgICAgICAgICAgICAgICAgCiAgICAgICAgICAgICAgICAgICAgICAgICAgICAgICAgICAgICAgICAgICAgICAgICAgICAgICAgICAgICAgICAgICAgICAgICAgICAgICAgICAgICAgICAgICAgICAgICAgICAKICAgICAgICAgICAgICAgICAgICAgICAgICAgICAgICAgICAgICAgICAgICAgICAgICAgICAgICAgICAgICAgICAgICAgICAgICAgICAgICAgICAgICAgICAgICAgICAgICAgIAogICAgICAgICAgICAgICAgICAgICAgICAgICAgICAgICAgICAgICAgICAgICAgICAgICAgICAgICAgICAgICAgICAgICAgICAgICAgICAgICAgICAgICAgICAgICAgICAgICAgCiAgICAgICAgICAgICAgICAgICAgICAgICAgICAgICAgICAgICAgICAgICAgICAgICAgICAgICAgICAgICAgICAgICAgICAgICAgICAgICAgICAgICAgICAgICAgICAgICAgICAKICAgICAgICAgICAgICAgICAgICAgICAgICAgICAgICAgICAgICAgICAgICAgICAgICAgICAgICAgICAgICAgICAgICAgICAgICAgICAgICAgICAgICAgICAgICAgICAgICAgIAogICAgICAgICAgICAgICAgICAgICAgICAgICAgICAgICAgICAgICAgICAgICAgICAgICAgICAgICAgICAgICAgICAgICAgICAgICAgICAgICAgICAgICAgICAgICAgICAgICAgCiAgICAgICAgICAgICAgICAgICAgICAgICAgICAgICAgICAgICAgICAgICAgICAgICAgICAgICAgICAgICAgICAgICAgICAgICAgICAgICAgICAgICAgICAgICAgICAgICAgICAKICAgICAgICAgICAgICAgICAgICAgICAgICAgICAgICAgICAgICAgICAgICAgICAgICAgICAgICAgICAgICAgICAgICAgICAgICAgICAgICAgICAgICAgICAgICAgICAgICAgIAogICAgICAgICAgICAgICAgICAgICAgICAgICAgICAgICAgICAgICAgICAgICAgICAgICAgICAgICAgICAgICAgICAgICAgICAgICAgICAgICAgICAgICAgICAgICAgICAgICAgCiAgICAgICAgICAgICAgICAgICAgICAgICAgICAgICAgICAgICAgICAgICAgICAgICAgICAgICAgICAgICAgICAgICAgICAgICAgICAgICAgICAgICAgICAgICAgICAgICAgICAKICAgICAgICAgICAgICAgICAgICAgICAgICAgICAgICAgICAgICAgICAgICAgICAgICAgICAgICAgICAgICAgICAgICAgICAgICAgICAgICAgICAgICAgICAgICAgICAgICAgIAogICAgICAgICAgICAgICAgICAgICAgICAgICAgICAgICAgICAgICAgICAgICAgICAgICAgICAgICAgICAgICAgICAgICAgICAgICAgICAgICAgICAgICAgICAgICAgICAgICAgCiAgICAgICAgICAgICAgICAgICAgICAgICAgICAgICAgICAgICAgICAgICAgICAgICAgICAgICAgICAgICAgICAgICAgICAgICAgICAgICAgICAgICAgICAgICAgICAgICAgICAKICAgICAgICAgICAgICAgICAgICAgICAgICAgICAgICAgICAgICAgICAgICAgICAgICAgICAgICAgICAgICAgICAgICAgICAgICAgICAgICAgICAgICAgICAgICAgICAgICAgIAogICAgICAgICAgICAgICAgICAgICAgICAgICAgICAgICAgICAgICAgICAgICAgICAgICAgICAgICAgICAgICAgICAgICAgICAgICAgICAgICAgICAgICAgICAgICAgICAgICAgCiAgICAgICAgICAgICAgICAgICAgICAgICAgICAgICAgICAgICAgICAgICAgICAgICAgICAgICAgICAgICAgICAgICAgICAgICAgICAgICAgICAgICAgICAgICAgICAgICAgICAKICAgICAgICAgICAgICAgICAgICAgICAgICAgICAgICAgICAgICAgICAgICAgICAgICAgICAgICAgICAgICAgICAgICAgICAgICAgICAgICAgICAgICAgICAgICAgICAgICAgIAogICAgICAgICAgICAgICAgICAgICAgICAgICAgICAgICAgICAgICAgICAgICAgICAgICAgICAgICAgICAgICAgICAgICAgICAgICAgICAgICAgICAgICAgICAgICAgICAgICAgCiAgICAgICAgICAgICAgICAgICAgICAgICAgICAgICAgICAgICAgICAgICAgICAgICAgICAgICAgICAgICAgICAgICAgICAgICAgICAgICAgICAgICAgICAgICAgICAgICAgICAKICAgICAgICAgICAgICAgICAgICAgICAgICAgICAgICAgICAgICAgICAgICAgICAgICAgICAgICAgICAgICAgICAgICAgICAgICAgICAgICAgICAgICAgICAgICAgICAgICAgIAogICAgICAgICAgICAgICAgICAgICAgICAgICAgICAgICAgICAgICAgICAgICAgICAgICAgICAgICAgICAgICAgICAgICAgICAgICAgICAgICAgICAgICAgICAgICAgICAgICAgCiAgICAgICAgICAgICAgICAgICAgICAgICAgICAgICAgICAgICAgICAgICAgICAgICAgICAgICAgICAgICAgICAgICAgICAgICAgICAgICAgICAgICAgICAgICAgICAgICAgICAKICAgICAgICAgICAgICAgICAgICAgICAgICAgICAgICAgICAgICAgICAgICAgICAgICAgICAgICAgICAgICAgICAgICAgICAgICAgICAgICAgICAgICAgICAgICAgICAgICAgIAogICAgICAgICAgICAgICAgICAgICAgICAgICAgICAgICAgICAgICAgICAgICAgICAgICAgICAgICAgICAgICAgICAgICAgICAgICAgICAgICAgICAgICAgICAgICAgICAgICAgCiAgICAgICAgICAgICAgICAgICAgICAgICAgICAgICAgICAgICAgICAgICAgICAgICAgICAgICAgICAgICAgICAgICAgICAgICAgICAgICAgICAgICAgICAgICAgICAgICAgICAKICAgICAgICAgICAgICAgICAgICAgICAgICAgICAgICAgICAgICAgICAgICAgICAgICAgICAgICAgICAgICAgICAgICAgICAgICAgICAgICAgICAgICAgICAgICAgICAgICAgIAogICAgICAgICAgICAgICAgICAgICAgICAgICAgICAgICAgICAgICAgICAgICAgICAgICAgICAgICAgICAgICAgICAgICAgICAgICAgICAgICAgICAgICAgICAgICAgICAgICAgCiAgICAgICAgICAgICAgICAgICAgICAgICAgICAgICAgICAgICAgICAgICAgICAgICAgICAgICAgICAgICAgICAgICAgICAgICAgICAgICAgICAgICAgICAgICAgICAgICAgICAKICAgICAgICAgICAgICAgICAgICAgICAgICAgICAgICAgICAgICAgICAgICAgICAgICAgICAgICAgICAgICAgICAgICAgICAgICAgICAgICAgICAgICAgICAgICAgICAgICAgIAogICAgICAgICAgICAgICAgICAgICAgICAgICAgICAgICAgICAgICAgICAgICAgICAgICAgICAgICAgICAgICAgICAgICAgICAgICAgICAgICAgICAgICAgICAgICAgICAgICAgCiAgICAgICAgICAgICAgICAgICAgICAgICAgICAgICAgICAgICAgICAgICAgICAgICAgICAgICAgICAgICAgICAgICAgICAgICAgICAgICAgICAgICAgICAgICAgICAgICAgICAKICAgICAgICAgICAgICAgICAgICAgICAgICAgICAgICAgICAgICAgICAgICAgICAgICAgICAgICAgICAgICAgICAgICAgICAgICAgICAgICAgICAgICAgICAgICAgICAgICAgIAogICAgICAgICAgICAgICAgICAgICAgICAgICAgICAgICAgICAgICAgICAgICAgICAgICAgICAgICAgICAgICAgICAgICAgICAgICAgICAgICAgICAgICAgICAgICAgICAgICAgCiAgICAgICAgICAgICAgICAgICAgICAgICAgICAgICAgICAgICAgICAgICAgICAgICAgICAgICAgICAgICAgICAgICAgICAgICAgICAgICAgICAgICAgICAgICAgICAgICAgICAKICAgICAgICAgICAgICAgICAgICAgICAgICAgICAgICAgICAgICAgICAgICAgICAgICAgICAgICAgICAgICAgICAgICAgICAgICAgICAgICAgICAgICAgICAgICAgICAgICAgIAogICAgICAgICAgICAgICAgICAgICAgICAgICAgICAgICAgICAgICAgICAgICAgICAgICAgICAgICAgICAgICAgICAgICAgICAgICAgICAgICAgICAgICAgICAgICAgICAgICAgCiAgICAgICAgICAgICAgICAgICAgICAgICAgICAgICAgICAgICAgICAgICAgICAgICAgICAgICAgICAgICAgICAgICAgICAgICAgICAgICAgICAgICAgICAgICAgICAgICAgICAKICAgICAgICAgICAgICAgICAgICAgICAgICAgICAgICAgICAgICAgICAgICAgICAgICAgICAgICAgICAgICAgICAgICAgICAgICAgICAgICAgICAgICAgICAgICAgICAgICAgIAogICAgICAgICAgICAgICAgICAgICAgICAgICAgICAgICAgICAgICAgICAgICAgICAgICAgICAgICAgICAgICAgICAgICAgICAgICAgICAgICAgICAgICAgICAgICAgICAgICAgCiAgICAgICAgICAgICAgICAgICAgICAgICAgICAgICAgICAgICAgICAgICAgICAgICAgICAgICAgICAgICAgICAgICAgICAgICAgICAgICAgICAgICAgICAgICAgICAgICAgICAKICAgICAgICAgICAgICAgICAgICAgICAgICAgICAgICAgICAgICAgICAgICAgICAgICAgICAgICAgICAgICAgICAgICAgICAgICAgICAgICAgICAgICAgICAgICAgICAgICAgIAogICAgICAgICAgICAgICAgICAgICAgICAgICAgICAgICAgICAgICAgICAgICAgICAgICAgICAgICAgICAgICAgICAgICAgICAgICAgICAgICAgICAgICAgICAgICAgICAgICAgCiAgICAgICAgICAgICAgICAgICAgICAgICAgICAgICAgICAgICAgICAgICAgICAgICAgICAgICAgICAgICAgICAgICAgICAgICAgICAgICAgICAgICAgICAgICAgICAgICAgICAKICAgICAgICAgICAgICAgICAgICAgICAgICAgICAgICAgICAgICAgICAgICAgICAgICAgICAgICAgICAgICAgICAgICAgICAgICAgICAgICAgICAgICAgICAgICAgICAgICAgIAogICAgICAgICAgICAgICAgICAgICAgICAgICAgICAgICAgICAgICAgICAgICAgICAgICAgICAgICAgICAgICAgICAgICAgICAgICAgICAgICAgICAgICAgICAgICAgICAgICAgCiAgICAgICAgICAgICAgICAgICAgICAgICAgICAgICAgICAgICAgICAgICAgICAgICAgICAgICAgICAgICAgICAgICAgICAgICAgICAgICAgICAgICAgICAgICAgICAgICAgICAKICAgICAgICAgICAgICAgICAgICAgICAgICAgICAgICAgICAgICAgICAgICAgICAgICAgICAgICAgICAgICAgICAgICAgICAgICAgICAgICAgICAgICAgICAgICAgICAgICAgIAogICAgICAgICAgICAgICAgICAgICAgICAgICAgICAgICAgICAgICAgICAgICAgICAgICAgICAgICAgICAgICAgICAgICAgICAgICAgICAgICAgICAgICAgICAgICAgICAgICAgCiAgICAgICAgICAgICAgICAgICAgICAgICAgICAgICAgICAgICAgICAgICAgICAgICAgICAgICAgICAgICAgICAgICAgICAgICAgICAgICAgICAgICAgICAgICAgICAgICAgICAKICAgICAgICAgICAgICAgICAgICAgICAgICAgICAgICAgICAgICAgICAgICAgICAgICAgICAgICAgICAgICAgICAgICAgICAgICAgICAgICAgICAgICAgICAgICAgICAgICAgIAogICAgICAgICAgICAgICAgICAgICAgICAgICAgICAgICAgICAgICAgICAgICAgICAgICAgICAgICAgICAgICAgICAgICAgICAgICAgICAgICAgICAgICAgICAgICAgICAgICAgCiAgICAgICAgICAgICAgICAgICAgICAgICAgICAgICAgICAgICAgICAgICAgICAgICAgICAgICAgICAgICAgICAgICAgICAgICAgICAgICAgICAgICAgICAgICAgICAgICAgICAKICAgICAgICAgICAgICAgICAgICAgICAgICAgICAgICAgICAgICAgICAgICAgICAgICAgICAgICAgICAgICAgICAgICAgICAgICAgICAgICAgICAgICAgICAgICAgICAgICAgIAogICAgICAgICAgICAgICAgICAgICAgICAgICAgICAgICAgICAgICAgICAgICAgICAgICAgICAgICAgICAgICAgICAgICAgICAgICAgICAgICAgICAgICAgICAgICAgICAgICAgCiAgICAgICAgICAgICAgICAgICAgICAgICAgICAgICAgICAgICAgICAgICAgICAgICAgICAgICAgICAgICAgICAgICAgICAgICAgICAgICAgICAgICAgICAgICAgICAgICAgICAKICAgICAgICAgICAgICAgICAgICAgICAgICAgICAgICAgICAgICAgICAgICAgICAgICAgICAgICAgICAgICAgICAgICAgICAgICAgICAgICAgICAgICAgICAgICAgICAgICAgIAogICAgICAgICAgICAgICAgICAgICAgICAgICAgICAgICAgICAgICAgICAgICAgICAgICAgICAgICAgICAgICAgICAgICAgICAgICAgICAgICAgICAgICAgICAgICAgICAgICAgCiAgICAgICAgICAgICAgICAgICAgICAgICAgICAgICAgICAgICAgICAgICAgICAgICAgICAgICAgICAgICAgICAgICAgICAgICAgICAgICAgICAgICAgICAgICAgICAgICAgICAKICAgICAgICAgICAgICAgICAgICAgICAgICAgICAgICAgICAgICAgICAgICAgICAgICAgICAgICAgICAgICAgICAgICAgICAgICAgICAgICAgICAgICAgICAgICAgICAgICAgIAogICAgICAgICAgICAgICAgICAgICAgICAgICAgICAgICAgICAgICAgICAgICAgICAgICAgICAgICAgICAgICAgICAgICAgICAgICAgICAgICAgICAgICAgICAgICAgICAgICAgCiAgICAgICAgICAgICAgICAgICAgICAgICAgICAgICAgICAgICAgICAgICAgICAgICAgICAgICAgICAgICAgICAgICAgICAgICAgICAgICAgICAgICAgICAgICAgICAgICAgICAKICAgICAgICAgICAgICAgICAgICAgICAgICAgICAgICAgICAgICAgICAgICAgICAgICAgICAgICAgICAgICAgICAgICAgICAgICAgICAgICAgICAgICAgICAgICAgICAgICAgIAogICAgICAgICAgICAgICAgICAgICAgICAgICAgICAgICAgICAgICAgICAgICAgICAgICAgICAgICAgICAgICAgICAgICAgICAgICAgICAgICAgICAgICAgICAgICAgICAgICAgCiAgICAgICAgICAgICAgICAgICAgICAgICAgICAgICAgICAgICAgICAgICAgICAgICAgICAgICAgICAgICAgICAgICAgICAgICAgICAgICAgICAgICAgICAgICAgICAgICAgICAKICAgICAgICAgICAgICAgICAgICAgICAgICAgICAgICAgICAgICAgICAgICAgICAgICAgICAgICAgICAgICAgICAgICAgICAgICAgICAgICAgICAgICAgICAgICAgICAgICAgIAogICAgICAgICAgICAgICAgICAgICAgICAgICAgICAgICAgICAgICAgICAgICAgICAgICAgICAgICAgICAgICAgICAgICAgICAgICAgICAgICAgICAgICAgICAgICAgICAgICAgCiAgICAgICAgICAgICAgICAgICAgICAgICAgICAgICAgICAgICAgICAgICAgICAgICAgICAgICAgICAgICAgICAgICAgICAgICAgICAgICAgICAgICAgICAgICAgICAgICAgICAKICAgICAgICAgICAgICAgICAgICAgICAgICAgICAgICAgICAgICAgICAgICAgICAgICAgICAgICAgICAgICAgICAgICAgICAgICAgICAgICAgICAgICAgICAgICAgICAgICAgIAogICAgICAgICAgICAgICAgICAgICAgICAgICAgICAgICAgICAgICAgICAgICAgICAgICAgICAgICAgICAgICAgICAgICAgICAgICAgICAgICAgICAgICAgICAgICAgICAgICAgCiAgICAgICAgICAgICAgICAgICAgICAgICAgICAgICAgICAgICAgICAgICAgICAgICAgICAgICAgICAgICAgICAgICAgICAgICAgICAgICAgICAgICAgICAgICAgICAgICAgICAKICAgICAgICAgICAgICAgICAgICAgICAgICAgICAgICAgICAgICAgICAgICAgICAgICAgICAgICAgICAgICAgICAgICAgICAgICAgICAgICAgICAgICAgICAgICAgICAgICAgIAogICAgICAgICAgICAgICAgICAgICAgICAgICAgICAgICAgICAgICAgICAgICAgICAgICAgICAgICAgICAgICAgICAgICAgICAgICAgICAgICAgICAgICAgICAgICAgICAgICAgCiAgICAgICAgICAgICAgICAgICAgICAgICAgICAgICAgICAgICAgICAgICAgICAgICAgICAgICAgICAgICAgICAgICAgICAgICAgICAgICAgICAgICAgICAgICAgICAgICAgICAKICAgICAgICAgICAgICAgICAgICAgICAgICAgICAgICAgICAgICAgICAgICAgICAgICAgICAgICAgICAgICAgICAgICAgICAgICAgICAgICAgICAgICAgICAgICAgICAgICAgIAogICAgICAgICAgICAgICAgICAgICAgICAgICAgICAgICAgICAgICAgICAgICAgICAgICAgICAgICAgICAgICAgICAgICAgICAgICAgICAgICAgICAgICAgICAgICAgICAgICAgCiAgICAgICAgICAgICAgICAgICAgICAgICAgICAgICAgICAgICAgICAgICAgICAgICAgICAgICAgICAgICAgICAgICAgICAgICAgICAgICAgICAgICAgICAgICAgICAgICAgICAKICAgICAgICAgICAgICAgICAgICAgICAgICAgICAgICAgICAgICAgICAgICAgICAgICAgICAgICAgICAgICAgICAgICAgICAgICAgICAgICAgICAgICAgICAgICAgICAgICAgIAogICAgICAgICAgICAgICAgICAgICAgICAgICAgICAgICAgICAgICAgICAgICAgICAgICAgICAgICAgICAgICAgICAgICAgICAgICAgICAgICAgICAgICAgICAgICAgICAgICAgCiAgICAgICAgICAgICAgICAgICAgICAgICAgICAgICAgICAgICAgICAgICAgICAgICAgICAgICAgICAgICAgICAgICAgICAgICAgICAgICAgICAgICAgICAgICAgICAgICAgICAKICAgICAgICAgICAgICAgICAgICAgICAgICAgICAgICAgICAgICAgICAgICAgICAgICAgICAgICAgICAgICAgICAgICAgICAgICAgICAgICAgICAgICAgICAgICAgICAgICAgIAogICAgICAgICAgICAgICAgICAgICAgICAgICAgICAgICAgICAgICAgICAgICAgICAgICAgICAgICAgICAgICAgICAgICAgICAgICAgICAgICAgICAgICAgICAgICAgICAgICAgCiAgICAgICAgICAgICAgICAgICAgICAgICAgICAgICAgICAgICAgICAgICAgICAgICAgICAgICAgICAgICAgICAgICAgICAgICAgICAgICAgICAgICAgICAgICAgICAgICAgICAKICAgICAgICAgICAgICAgICAgICAgICAgICAgICAgICAgICAgICAgICAgICAgICAgICAgICAgICAgICAgICAgICAgICAgICAgICAgICAgICAgICAgICAgICAgICAgICAgICAgIAogICAgICAgICAgICAgICAgICAgICAgICAgICAgICAgICAgICAgICAgICAgICAgICAgICAgICAgICAgICAgICAgICAgICAgICAgICAgICAgICAgICAgICAgICAgICAgICAgICAgCiAgICAgICAgICAgICAgICAgICAgICAgICAgICAgICAgICAgICAgICAgICAgICAgICAgICAgICAgICAgICAgICAgICAgICAgICAgICAgICAgICAgICAgICAgICAgICAgICAgICAKICAgICAgICAgICAgICAgICAgICAgICAgICAgICAgICAgICAgICAgICAgICAgICAgICAgICAgICAgICAgICAgICAgICAgICAgICAgICAgICAgICAgICAgICAgICAgICAgICAgIAogICAgICAgICAgICAgICAgICAgICAgICAgICAgICAgICAgICAgICAgICAgICAgICAgICAgICAgICAgICAgICAgICAgICAgICAgICAgICAgICAgICAgICAgICAgICAgICAgICAgCiAgICAgICAgICAgICAgICAgICAgICAgICAgICAgICAgICAgICAgICAgICAgICAgICAgICAgICAgICAgICAgICAgICAgICAgICAgICAgICAgICAgICAgICAgICAgICAgICAgICAKICAgICAgICAgICAgICAgICAgICAgICAgICAgICAgICAgICAgICAgICAgICAgICAgICAgICAgICAgICAgICAgICAgICAgICAgICAgICAgICAgICAgICAgICAgICAgICAgICAgIAogICAgICAgICAgICAgICAgICAgICAgICAgICAgICAgICAgICAgICAgICAgICAgICAgICAgICAgICAgICAgICAgICAgICAgICAgICAgICAgICAgICAgICAgICAgICAgICAgICAgCiAgICAgICAgICAgICAgICAgICAgICAgICAgICAgICAgICAgICAgICAgICAgICAgICAgICAgICAgICAgICAgICAgICAgICAgICAgICAgICAgICAgICAgICAgICAgICAgICAgICAKICAgICAgICAgICAgICAgICAgICAgICAgICAgICAgICAgICAgICAgICAgICAgICAgICAgICAgICAgICAgICAgICAgICAgICAgICAgICAgICAgICAgICAgICAgICAgICAgICAgIAogICAgICAgICAgICAgICAgICAgICAgICAgICAgICAgICAgICAgICAgICAgICAgICAgICAgICAgICAgICAgICAgICAgICAgICAgICAgICAgICAgICAgICAgICAgICAgICAgICAgCiAgICAgICAgICAgICAgICAgICAgICAgICAgICAgICAgICAgICAgICAgICAgICAgICAgICAgICAgICAgICAgICAgICAgICAgICAgICAgICAgICAgICAgICAgICAgICAgICAgICAKICAgICAgICAgICAgICAgICAgICAgICAgICAgICAgICAgICAgICAgICAgICAgICAgICAgICAgICAgICAgICAgICAgICAgICAgICAgICAgICAgICAgICAgICAgICAgICAgICAgIAogICAgICAgICAgICAgICAgICAgICAgICAgICAgICAgICAgICAgICAgICAgICAgICAgICAgICAgICAgICAgICAgICAgICAgICAgICAgICAgICAgICAgICAgICAgICAgICAgICAgCiAgICAgICAgICAgICAgICAgICAgICAgICAgICAgICAgICAgICAgICAgICAgICAgICAgICAgICAgICAgICAgICAgICAgICAgICAgICAgICAgICAgICAgICAgICAgICAgICAgICAKICAgICAgICAgICAgICAgICAgICAgICAgICAgICAgICAgICAgICAgICAgICAgICAgICAgICAgICAgICAgICAgICAgICAgICAgICAgICAgICAgICAgICAgICAgICAgICAgICAgIAogICAgICAgICAgICAgICAgICAgICAgICAgICAgICAgICAgICAgICAgICAgICAgICAgICAgICAgICAgICAgICAgICAgICAgICAgICAgICAgICAgICAgICAgICAgICAgICAgICAgCiAgICAgICAgICAgICAgICAgICAgICAgICAgICAgICAgICAgICAgICAgICAgICAgICAgICAgICAgICAgICAgICAgICAgICAgICAgICAgICAgICAgICAgICAgICAgICAgICAgICAKICAgICAgICAgICAgICAgICAgICAgICAgICAgICAgICAgICAgICAgICAgICAgICAgICAgICAgICAgICAgICAgICAgICAgICAgICAgICAgICAgICAgICAgICAgICAgICAgICAgIAogICAgICAgICAgICAgICAgICAgICAgICAgICAgCjw/eHBhY2tldCBlbmQ9InciPz42MlWEAAA8S0lEQVR4Xu29B3xc5ZU2/kzvTRr1LrnKkruNbIwppttAKKFs6AkJm4TkS9kvu8nmSyPsZje72W93v2Q3YUMIJQkQAtiACcYF417lJlu2epdmRtN7+Z9zNRePxnckuYSE318PXGvmvu287z3Pe85573vvyFIEXALEYzE4BwZx5mgzDm3dhoG2HnhcTigjUWjjCSjicaSSAP0PhUyGpFKJhFIOuUIFVZ4V9cuXY/aKpTAX21FSVQO90QgZ5ZvGNKYxMS6OxFTU6xpFOODHzldfQ/Nb78LbO4D4sBd6hRYwERHVGsiggEamINLKEJLFIQuFoIjGidEp6Ol8NBKCVx6F36CAodCK2kWLsPzGGzFvRRPMNhtJOU3maXy8sX//fpw5cwb33HPPJTdOF0xiv9uDIzt3YvvzL6Fv70GYQimYEnIirQ5Q66EkcipL86GqKYS2qAYqXwqKSBgBkxygLFGPFwG3G4lRLwzxFDRkoofoe5/TAVmCLLdOhppVi3DlPbdjbtMKGC2WdMvTmMbHC4ODg3h/2zYMDQ1h7bp1qK2tTadcGpw3iVPJJHpaW/HHn/8Sx9/7AHJPAhaYEVapYS3Kh9xmgMKuw+z6GTBUFCFp1SOpMcF1oguKQRes9ZWov6aJXG03nE4XYv4wBlvboTw9SuRVoTvmg6O3H4H+AUS8Lijz5Ji3pgnXP/gpVNfXQyanSWAa0/gY4V9+/GPUzlsId1SGYE8LHvvsZ6FWq9OpF4/zIzFl3b7+Dbz77/+D0KlB6OxlUBaUQGW1QD+zFEqTArJYCIuvWoqKOXXYu+sQvORaywJB5FNxhTeEoqYGWKoqcez9A0jEACMR3xV0QD3ihZzc7pkrl2Fo0IHWwycwcrQN7q5ehMIO6GxaXPvwfVhywxoUlJWNyTONafyF48iRZnR19WDTyWE0n2zDtx+5hTjRj9vvuCOd4+Kh+C4h/VlALBZDd3cXfD4fLBkuLHP9g/Xr8dK3/xFytxzWGQthmVWPmtVLMOemJSieXY4kxbYGqGGvrIQ7HMax/c3kd0egS8phUmqgkKtQtqAeI6EAOg4eQ9IXho8ssioco7QETNV2VDTWIiGLoHJ2FUpnlEOfnw+N0YqoN4ITuw+gp70NpbVVsNjtacmm8ecAOWTCUgWbAD6mly3ORU9PDzZv3oLukArrt+1BIBiCNc8OqyoOs8k8jl8Xg3NIHAwEsGPndhw+dAwFhQWwkpVN0hU7cegQ3vjRf8GqzEPpyuUovaIRi69bDmN1PnzxIDx9/dCHElAp1EiZDLCXFiAc9sOan4eK2TPJahvg8TiQX1oIW1khlBYDzOUF1BkT5CkFwrIk5q+6DPFECof3HITL4cKsRY0oqStBNDKC4rJ86PRW9B7rwunmg6hZOh9mizUt9TQ+akRjKYG8CSIzu3IK+TSLM5FIJLBx49uIamx4efMeGqsk1ColTnX2YPGC+Wg7dgCN8xdAfgnCw3NIHAoF0Xa6DQ7nILo7OzFv3jwolUrs2bkHqpAMdfPnIq8iH9byfNQumoMTRw7D39kHeTQGmQLQqGVQJH0oKDKhvKwI+XojtGo54iEvNG4HUo4hJAIumM16mpUsyLMa4fM6YMozo3pWHYYHB2EvKoaOyG2hdG//EFL9LhToNLAXWJBS6hHUyBDWJTCjdhYUCmp0CmCFY+vBf7PHjc8LafQ5WxcFJU2XY2uTy+J8WAfly8wrls9sk67vOXJklmdkt5MpR648DE7LlIMxFTmk0hnZsgrf6a9SwY3LaLzoetNnoU06I8XlcTLR9wnz0OeJrgEfDKm+c3mxHYZUHrE/4w46f6nnoC7iTigOPLNxD1xuL1RKCjVJoFgsjhF3ALMqS3Bwzy4sWbIkXeLCcQ6J1WoNkcqHM61H4BjuRU3tTASDQXQcbUGpUY88sww6ZYKEIdc534okBbauwSGY7aWoW1QPszoC5VAHEoO9iA4MI9U3iHDnGaSoLnMiTK6zHzKXE6mhIcgG+6F2DkEd9AHxCAYGutHf1UnthaDX65EMezHU1olkgBQlrqQjBZlJhbw55QjS1aqrqYNWq01LPjGSdKXYyvNfthqZFzhG9fLFZ4gWhS8uWxvhPJ3icqICZFod/s7lBUVLn+O8Yr4EtclpY0pPMqTzyilNJAa3I5bncvyZ2+U8opwxloUziLJw/nQbIliOOMmYnY/bnkyO7HQG91ccM/E8t8Fg4nI5PjgPlxXOZ8jD4PNchkuxvNwvPrh8JhLUCLfHaZkyMKbS96mMIUO41um6+E8uuS8Gfr8fp1pPY/2+VoqD28mwqdIp3G85Bh1OFJdWwJQKorikhAyaOZ16YZBc2Gpva8dLzz8DjTyMQDRMlnE2VP4EauQp5GsTSKkSICpCV12HikVLMer2QEVXM0jWO3C6BUVEQgtf2EQckXAQsagH0agf4UQUwThZbLkacoUWerUONoMFOp0VQRJjOJaAR6mCTKWl+pRIQIE4yIqn6OrGaNDjMgR0CmisavidAehsebhm3Y0wGI1pyXNDVEgGK4lowLn3rAAMVkiVcuxiRqJj59Sqs0ogKj6XFRVNdCu5HJfPhqA0VIY9FFEGuo7k3YyVF9P5O59ncBvcFrfL7TNYnkz5xHKifB/Wk9G3TExVDk4XIY4BQzyfLQeX4bKMzPOZ4PH5cDJKt5M9XpltZY4FY8p9zygnNYaM7Lqyv18smE779u7B4e5R/OzljQJp2VvJBIen7N3+74c+gcHWZnzmsccuarVaksSRSASH9u2GEk7s27OTYlItZFE5CpIJVGjkyNMoESVFcWvU0M2YQa5OCqNdHZD7yToT2XQRH1TeQUTJffZ7Qgh6ggjFiMBEyEiUBp2aVNGEYNGrKGbWC26yxWKH3JCHoMqIoIKsrlpLHSVrTFL4ZAmaPWUIUTknyWdXJWGjCzRMBLI0NGDZisuh0UxskTNJnHlhBStCaXyOD76YYt5sZWKIpM0kQy7iMDIVjstmts318LlMMokQJwxR2bOVTUwX6+J6JlLGieRgiOkiWcXvInKRWBwPxlTIkCkHy8Dg73yex5HHM7ueqfR9KmPI+FOT+PXXXoM+rxhPPrueLHJAILEUouRWV5cX4/FbViHmH8Utt96WTjl/5LzF5Pd7MdJ7Asf37cPp4yeRooFSxdyokodQRtqrVxsAcx785H4nIgHEvCMIjLjJtQ5gdDQCH7kUoEE25BcgRZY2RjNPmOplMvJmDm0sTJT2U7lRKCMx2LR6FOoVKC0zwVBegbilnCwyx8BaBJWk8DTGfrrAI8oUSpRymENJuPUajFrzcPmVN6CwsHBM8BwQCcdjKioAKxErAIM/80jw+WyFzoRIer7o7AJmK2Q2xLoy6xfzijJlKpmITMXmCYKVjcux28eXjPsgKq5Yj9SkI2IiORiZfRbbFmUSzzMylV4ci1zkE8HtcR1J+sB/sye9TFJyPZwnU76p9H0qY8j4U5K4vb0dnd29+PXmQzh04gyN2Vk3muXO3qnFRF65cC6qlF7cd999qKysTKecH86JiUVwe8GQG6mIG20HDyEwSKTudyHl8EMz4hPiWoXHAdlQHxKn2+E60Unx6wgGiVwjOiPCxRVw2YtwJB7HcXLJj9OkcNw5gtagF53kVg+m5BgymJCyl0NpK0ZIpoE7EIOzbwS+3i7EHP00wwShJOVJyFWIUkzsjSQRIittiCsgC1P8p5fDFU9izrz55JLr0pJLgwnHysQXlC8ux0T8DysEn6Okceni52ykaDbhmGpModL5JlAAsS4R/FGMv/i8WFfW9R1Lo7JnY9Z0AuUT6+PznD5RPSImkoOR2WdWfAYrNtcrnmewHNwGu4h0aYXPnE88n1lnJsQJjyFLyy2CdFkoO9bG2PizwoukvNC+C2kZY8jf+XqLZRmTyT1V8C3Z5uZm7Ot0YcveZhqTsYUsBk9eCWqYx2w8kcmz9Phw7x234RUKX69YfSVNNjlcugmQk8QKIkuULKQCHhz6YD8GB9xwRkLkagdhjUWgDvgRHHXD0+2Cs9MDd0KDSPUMeGbWok2nxJ6+ARw63YOuARf84SiGPZQ3HIaf6hwadWBgeBRdQ26cGXTgpNOBgEUPTW0FFEXF8IUTcPQNwT80jHjYQ7JEEZfHENAkEdcqIQ8NIU5xdje5/WGKrRcuWjZpTCEqqahwIoRzNOtnKrH4WUoxkqQxH+ajv7nyiRDrYkvG/7ESiWX4L9chKFl2O5xGeeXUDqexzKx8LL+wKETpXNdZRZGuR8REcmSmcxp/5v5xe+L5bBKLfWd5+PtEZBDPC3VQGVFuzsr188HgOsTPlG2sn4QL7Xv2GLK8/J1l4foYE8l9Ptiy5T2442r87t1dZGFjVP9YAzGa6cxGPb7+yF3oIV0fdpLnSQRncJ5INIYzfcNYvaQBhw/sw6JFi4W080FOEjNOHDuGKJHFTW7y6f1HhcUrPxHXHIzAFKaL7UtgxBeGt7gU3kX12K9MYOupdrR1DSJGg2MvsKGqqgxz62fBbNKiuqIaJQUlyLdYUVpaDDu5wgWUZ8TtwYjDjUGPB6PJGPLn1kFfXo5wIApXaz+STi/CvDhmkMOgTyHa0YYwWeDjQ15obUXU8SUUE2vSUktDVA5RCfgCM3is+QJy+ofKmra2gqKlL7aIcVZjgnwiMuvlPJmKxPWwMjKylYhXi8VyQr5zlG1MZp7dud5c9YiYTA4xfaw/Y4TJLsdgOfg7H2w0Mok2Xr5cyJJb7CcTlMry8WH9adkutO/njuHZtvj7WJ6pyp0be/bsFvTxpW3N6OwdoFAg040Grm9aCGt4CNVVVegYGkUgFCK5SXCCgv4OOUYxc8ZMBIa6MGv2HBgMFKpKgSsTBc/AWE1Z4BvV+/btx4YNG7Bjxz7UzJmJBM0uCVcEAY8MFPZilJTZEYzDV1ImEPg9twvvNB+HJxRDcUExmhYvJvLOQVl1GfIK82E02GAx2WA0mmCxEZGLS1BRUUCktqG6pADVZVWkOGa0dg/inX2H0BIMIVXfCBmdH+6nWLubYuyQCvHuUbg7vBiKqOFPyrF48dJJCczI7L/oSvE58TMrBIPPsXLyVzHmE8+L8bOo0FL5GJyXDymI7bF7yWX5WrJCclwogj/zObH+bHDd3CaD0/ngGJHLsCuc2Tafk0KmHNkQ+zcZppKP2xdlyJabMWZRx+TnseBDJJSU7FJ9n8oYcjmxLT4uFU6dOoW2zh6s39+Oo63t0GnP6mKEOHPFskasmlOCp370z2jZ9R7uvHopCSCnyfKsrBqVEm9t34+KeUvx9a99DSEieTaiZFD9L72U/jYe1P1zMTAwiAMHDghk7ukZgaXQiuo5dQi4A4hDTQRWUuxLLnKeGaHF9dgz4kRn5whqC2pQV12H/CIirVlHxEggRR1R0cwpl2sRpTg4kopBrZVBq9LAZsuDQqWFTm8ULHZD/QyUlVXyTk2y5p1odfSQe16CxOxquP1+xMi8Dwz6EVYr0BnwwumPCq7LVJbnMxWbL7qI7IUgMR9bIs7HCsOLH+IqLM/imeV5ASYzn5hXVLRsiO2JpBdcRDrHCiaW58+sfNkkYaUcJwuli7IIlozKcB5OF+sS49tsZMshguvI7F8uiJZ6MvAkwTJkyi22IZI0uz3xe+YEM1HfpzKGXI7BZcU8fDC47uxxmAq85Dmuf+MN9Ifk2HHwGHSasxY4QZXqdTosrCzAC7/+Fd56+23c/9DDCPW34Z4bVlN7SZJlrH1ewXaQh/v23hO44eZ1eP6558aR3PvTn2Lg2msR3b8/fWY8JN1po9EozAad7W0YGXGguMwCK5n4tn0nBJdaTjGxXq1Can4VmmMBHO3sJSJahEesrHk2qJVyaPk2VDxGHdMLs1MwHIRar4NSpYacFJwPq82CSCKGIMW2ZosRag2l0YXTqBTwBoJUVokUfbZVVxJZ5CBfAGHPMGQ6FTrJEvuiMricIzjT1kZuOW8Rzb0Nky2t6J4x+DO7guJ3/ivEVWnF4O9CHuHc2F+B2On8meA0QanSbfBn0c0cc/nOtsMQ6xTP8efM8mMTyPiGxDTxGMuTTkwjux4xn5BG5yaSQ0wX5RaRXU6s+5y20+fFfCJEOYS66cjum1SbXEdmu2Ld4jGVvme3wyRlogvXJl2PeDCJOW92nROBCfjCC8/BXFKDF/+4hyz/2TiYwbHuZ+68EZHhdqy75VY0NjbCbrdTW3GU280Y8cfQMzBM8iiEunithT3Kr376Xvz3r58l+ZWo0esR/M//hOtv/xZJrxe61auhIzJnQ1JsFqaosBgen59mCA9Od/Zh5sK5sOcbYI4GYZTRTGc1Ql5iR5BiYqvejHwiZDDgQ4gOHqhkKgktzUQ6nQFDTg/FyFGY9TSIySDlCdD3CLVDZKYRtPCilkFH54ioZK1NZhvKSuvQ1utH17APHm8YAS21XVqKpD+OQEQJh8eLIFnnEydasHvXLmzcuBGjo6PpHpwLHl9WCBH8Ofu71EUUz0ulZUPMN1m9udoSy0tBTJsojwipfJPJkUum7PP8WSofn+O8UhDryC6Xq01GZn7xc+a5XJgoj7h2kX1cCPbu3YOZc+dj/Z4W+AJ+gYwigqEwVi9bABsCWLFiBVauXCmcV1GsvHr1leg604o1jZXCcwN8m4m9yQVzZuCh65bgx//3X/Eol/H54LrmGji+9S3Bm+WhjfX0CPVk45wu8Kzg83mxf/8BEi4EJc0O3T0OaK0WVDdWw5IIQ0vyauvK0TnigXMoAAuRWK1Wwhv2w+NxI+INwkAucmVFtRCkO1xudHU50dbSidpyK1ZdXoe8PDV6uruE+2phcs1dLi+V9RCZTZDrjIjSRBGMy4mY5DJT+tCwE2cOnUbAm4QyvwAVlVUUc5B85BEYqMzAwADCZNGnMQ0psGHJNclMlCYFt9uNU6fbsHH/KZxq7x63kBUnN7nInocbl81FX2cbGhoa0ylncd+nPoViqwGP3noVGTATnrj/dty1cjY2/vFN3FZTixUdHYhTbBxsbU2XGIOqpCT9aTzGkTgUDOLg/l149pdPY8eOnUQqP7kFUQoatIjLFKi/YgFUJiX0RXmIWHVo6yfXVm+CmUhkIIsr12gp1tWRO0zxMM0dIZqhkuTHJHhJl2Lh3p5hbHxzJ7nSIdx683Lk2dTw+gLkEofgoLg6EApAS/GuikY0HIxRnCenWNiDk8PDiETCiJw8DTVZb3WeCpetWEyeQREUKSW5UHJc1tSEQnKppzENKUwU60+Ulo0o8eH5534NR1KHDdv2jdvQweBY+NHbr0fLgQ9w1913Sy66skVetmwZNMER/OtXH0F46Aw2bduMrzY0YOG772LwyScR7OsTrC9DRm616eGHYfrCF9JnxmOc6Byotx49gb7eXqQQh8Wso8OGWXMb4XS4UDGrHKVrFkK7oBxOchlS5Pra88woKS+gv3nQUCkdmWk1ETFJMULQF4SDXOlQNEIk16Kk0EaW1ojf/G47dmzfh7tuX4VF8yqQorwcE/BLAZLhOMXdGmi0RmErpVypwqmeLgyS1fVWlSAyowxqionL7OQZVJRR3B2Hzx8UHoQIh0MU+1zACsU0pjFFvPr7lzF7/hK8s/sIkZ9N1VlwHLxg7gw4O45DrzegqqoqnXIu9OSh9oyM4Pvf+yZ05C7/gCxw3v/5Pxh88UXBG+ZlLTnF0OYvfxlFr74K+zPPIPDyywhu2DBWQQbGLWxxLOwZ9eI0mfMkCRgngrCYl1+xHO7hM8gjFyC/qhyBeBg+flghBNTOqIbVZqa41Q+v2wOrxYiSkiISUkeWNYJhxwBicSIxkVevVyO/MB9qQx4OHWqFKh7FJ65bjhC54Z29Q2TBadaiwJ/jaY6ZuX3IlHQ+hYZ5VUhSsspsQh4/i2y1IQolzrR1k0XOxxmKM4YG+8mFrxBuY01jGpcaLS0n0DPgwJv7z+BMdz94V5YINh4mkwFfvvcmbFr/Bzz5wx8KMXgucFpDaSlqdDpcQ9bX88//jIifHysiUpJHaX7sMeFQVlcjuH49nF/6EgKvvAJVXR10FCtnYpwl5tlh+apV0JrM6O0fQl/fIJRyBYzqBMW5g+ik78W11aitKYHVTG61SUPkJHeC3GUfkZ/zmsjHV2gUCAR8iPhGMHemHY/dfzMee+gTuOGGq1Bgs6CoQI/ishI8+/IWHDp5ButuasKcqiLYzHrY8uggV92oVQkrhyqyxJFIis5TLN1UjwbyBnjBbMTlgDXfJCymDQ0OYdTJcXe3sOl8GtO41PB6vXjhhRfR5k5gz7FT4whMsaKwSebh267Fns1v4/Y775yQwCK0+/ej4d/+Dc6XXkKCrK+6vBxWioXt//VfUJIVZ2IPk0vue/ppxLu6BOvMrnU2xpGYA/bTZ84gTPGnhm8F0bxQRPFv3OdCzBuAc8QH53AASbKOcX8EZrWWCCyDzxMlVzYGg14ruMC9vX0U4fuwakkt/uoTV+CWa2Zg4Uw11DIPub6jVGsSGr0CIWrhude2kdvtx03XLEN+voGsqFbYpqaSqaFUqKDTa8gdT8DtCQhuukajQl6ejdzvKExGC2pqZgi3lvgNJJWV1bDxK26nMY1LCHZvX//DqyiaOR/v7DoMrUqZThlDIBTFvJk10EeIJ2TQrr766nSKNOIU746S6zzwyU/C19wM3YoVsH7jGzB//vOId3fDSX+dX/0qwocOCfkF15p0XLN0KRRFRcK5TIwj8YEDe/Hqq78nUo6i0J5PpNRDlowhEQ2joqoScYpL2zs7YMwvRFKpJcutgS8QRP/IKMIkvI6+8wsE+noHYFAnceM1i1FglOM0WdvX3/gjXnj+DxjoG0UypoHbwaQ3YmRgFIcOHEFpiQU2k4omgzBNIlH4vBGyxEqoiLixeJIIa0NhYTncwTCGhgdhMeqwsukKLG9aDg9b/VgUtXUUV5BrPY1pXEpsfPstKAxWbDvWhWiUb42epQ1v2ijMt2Hdyka0thzH3/3d3+XeNkmItbbC8cgjcP/DP0A5Zw4sX/yisGgVa2mB6zvfgZfi3gTFykpyqfU33IC8f/onVPX3o/zkSRRv3Ajjpz6VruksxpG4+XAzHE4nHMND6CXz7XZTfHymg+LVXsTlKgwPDaGtvR0hsr6eWBK+SAyDbj+coQCUWiIc5fF6Q8K94VkUK4Ni55EhF3o6HZg7bwFuuv0WKLR6dHf3wecLwEJuu5Ysd2evCwG/F5UldkQjcYyS1edVa7lCAVkqQTORDL1DDpJWi1RSASe1GfSHodXq0iSPIUwTTTvF8tOYxqXEsWNHcfBQM5r7PDjV1jXufjAZaPCustvXNCEw0IH7H3gw5+7BVJS81a1bMXTHHYgePQotha3qmTPhf+EFOL7wBYT27oVm4ULY6HPBM8+g9MABgbTmJ56A3GyGjEJIfl0zb/rgIxPjSLz8spXCQlJ+fh5ZxmKKsNWC4MdaTqOrs486IIeChPaN+iiIt2CA3OtoUkausQpGk46IGMboqB8JGdFOqSQyRtE54MP7h1owOOzCvbdchy/+9V/BVmKEP+SCmtxlrdFME4SGLHAUeUYDWX5gxOEU3njJE56MbyGpFHCRS9/e1Qm90QqbvYziYCde/PXPsHXbezAQmXlR7OD+g9jxwY50b6ZxsWAl5d1MmQef+/8L2tra8OaGDbDVNOC93YfPuZ0UikSwYlE9StRRYWEr10vhk2QYh++5B4PXXotUKASZVovEwADiZGEtX/86yg4eRDV9LyUiW7/3PchoIgi+/TbcTz2FfnK1+1euRG9jI7oLC9FTWooBmgBip0+na2eOsMOfBr825JXf/wF/fPcd6IkYJ8kNzi+woGl+JZI+B9RK3kyhRkplgd6ah9++vgMGIrzRpBF2XgXcYZCBRjQegA5erL5sPgLhBMW9m6BKpHD/bWuw7tY1CFNI8fKrW7B923FSiiQuW1iNqy6bTQKo8cbmgzjdMwClSk7xL5GaZr7WU6excHY+Vi+bgyi0iNNAJCgG33n8DEJxHZHYJNzrKywswKpVl+PBhx8a69AUwcrJGKegMuH/Kd8/FCHWJYWp1sVyXEqynG8fRPDduuxnpaN0gcWtnOcDqT7x2s8U1n8kxzRX2cx2co2hWHaytn/wve+ivPEyPP3GNiHM4yeORDBX7KT7X7prDX75n/+CXzz9P+eux1Ae/7PPwvvznyO8ezdUFRVQ1ddDRW60ZvFihHfsgDL9IoDQpk1IuFxIjY4iMTyMVHrjktiFbFGVM2bA/NnPCpb6nDd7vLd5K/7vf/w/BLwuQejbPrEWFUUGBIY7oZBFMTLiQd+QF4uWLcLr7+yBOwSUVJQgQi51Is5vzlAjRnHDcH8f5KkoEVGNYU8I4VAMcb8HK5fX4eabL0N13Wzs3t+Od9/ZjhlVNiybX4dESoE3thyhGNsnvCGTSRyieHhksA9rV8+HXhUBb0Az0IxYaK/AgdZBnOoYhEmnFxbAFi9ZiAceeEDYozoZWDHYFeI92ZMhEh1T3MkuOteZvQ84E/xQBO/fnQxS5LkYZF3iKYPlVSnHC8xjwQ99nC+k+sRPGmV4p5LINRZSZflBi6lcTxHcF2H/dA4Z/voLX4SqaiE27TwIk0E3bhyDoQieuP82BNoPwUQG7bHHHkunnIXnxz/G6N//PZJESLlKBUV5OeIU8sl4AwhxK5nxtNKFXm3LN74x3p3u7+vDNiKxnkhhtxfAQK5uitxrJ80O/mAAsZQWwWiCCgXh9fSjfm4ZdCScQWVAkgZwZHgEzuFRIrsSRQVFmDt7Bm5ZdyWWLKzHnNlzUV5Ti53NHfjpM29i63tbMW+WGZ/79FrMm1sDp8tJ7bgQoZhYqzFBo9RTjK1E0EOxr0aB+Q2zMG9eA/ItFpgNVmhNRqy5/noUF5cIsvG95aqqagoFJl7YYqLxEy1MtqlecA1NKFNB5pMnUuANLX/JYPGZNDw+fIskm8AMHgtO44NJw/n/lLiUk1k2uC9cP/eF9SIbPV0daCwxY3ZtpbCRIxP8YP/xtm4odOZx2y4zoV+3DkqKe7l+3v+cCgZhuOsu4SEGOVltBcW6fIg/TXS+2sEr1Ybbbx9PYseIA729vZCTuSgtLaeLKofD5YFKY4TL7cfwsBMqtRKzZ9ci4AugtNAKlSyOtlOtdEETKK2uQEVNCU0ARpQUW3DVysW4rLEOVzXVw2RMwmTRo7yqBr1DEbzw2nZy3d9CmNz0xnkzUVxaAqfDi3hMTu45kVhvIJeaJqxUGBaDEm2nT1CsPEzEBsnhQlvXAGKJJGKxCClSAl6fH93dPcJtslxghWPyTpWUmaDrMCmkFCET52MlPmqwZROeBCKlnur4cH9EEvwpyJzrcc4/BVgvsq/fj/7xR9j61h9w2+rF0GrVlH42A78IfuveZqQspdix4wO8v+39dMpZsNtc8t57KPjVr4Q4l11kjoOZwIZbb4XtySdR9NpryKO/5q98BbZvfxvGBx+Eav584eDV60zwaIgjoqU4ufjdd6G57LLxJDaZTaiorECSyDFIgTa/N8jh8ECtM5FEFMgmIujv7MaQw4cRcqlT4SjKS/MQIYvpleXDHdYTEYdQkq/D44/9Fbkgaux8fy+CIwNE5hLMmpGHitIimtnqoFXRxOBMYf++VuzduRelJSVooODdZjPQ5BGDUqeBjFgciwdRVWpHQQF5BTSIFkshAsEIkjIFPL4gRl1uYZMKL7S1UrDPGz6kwEp6obM6x4GTga3YVJSfhvYvCiw3k1B1kRMMj634zO6lAMsl5QlcCPgWJV9/Pia6ltmTxryGBpRTzConr/P6lUuEh/wzweHmO7ub0XTNjdi2dYvwvulsKAoLBWIWrV8POelpaOdO+J5/HiEit/tHP4Ljc59D5MABYfWZrXQBxdDlzc3CUdHSIkwAef/+7zBR/KttaoJ63jzY//u/UULxtJr4wjgnJh4cHMIvfvkMEWsXFEod5BTT3vvJm+Ad6UR4uI/c5jiS5N4qZSnEAh6Elfl4fY8PyYJ5UEZduHZ2AveuWw5vwIftH+zHW2/vxMrFjVjQWIoU775KqMlaesjCxoR92fyzjyNDg7DZbZi/sAFnelw4eKwX/kgCbo6NZX7cf9fVmFFXBgdZ4AMHTqCzZwBXr70Dg84g3nhtA6xWo7C0P2vWTDz6yMOoqxu/SsjE4SdVcoEv8tjzq+kTBB4VPthFZiWfLJZlS5Q9SXC92YoYIyWabDKRqovBr5eZCOyuS5ExV0zMpzOfuc0Ex4vsfWR7D3yei+Qifa6YWapPUnGtiMniW6myUmVyLcTxhCM16fIYZ+rB8PAwPv3oI/jcE1/Byx+cQPPJM4IVZnCtwUgUly9uwOJCJaLhEL74xBNCmhSihw/D8cUvInroEDSXXy4sbvEqNa9E871hjpVlZKW1ZIFVRFbNkiVQ0USiWbZMKJ/kSYK3Qmc9N38OiQOBIJ578TfYTjOLXK5De28Pbrl5DUoKLBhsa0ZdZQkMNiMUyQgcPT0IyczY0q7DQacZ8vAAbpoZwUzqUO+IE9v3HMPpzmGUl5ehacFs1JXxzio1tDqa+eUahMJJjHr82LO/BSPuUdTPrKD4NoGEwoxIimKO5hZcvbQG99x9LQ4fPomB3n4kZHLobYVYuPhqbHhrEwaHBoSXGOTTJPDQgw9g7ty5pCxnd9RMpKgXutIqBSmlEB7qkGg7F6lE5CLxpS43mSJL1Zc5ZrmIxpNX9qR5PiRmr3WiBULGxZI4l15IyX6y5SR+8pN/wdJrb8PPXt00NuHzDJcGW+h7b7oS4c5mXH3NGlx11VXplHORIHfa//LL8PzbvyEVCEBLZNbffDMi+/YhTFaaN32w286182IYb7PklWiOf/N+8AOoifjZOOcW04EDh/HMM88IDxSoVHqMjLoxm8i16orLcPLQbpTYTbBbLRSnasgllqGitgZvHfDgxd1RGlgfiqMtgKcbYaormZDBai9Cr18OryeJORVWVNujMGmi1JYM4WgCLm8I7V2Dwps/ygsKhF+DMFCw7/b7yNf346E7Lxfc+xPHB4Ttlr5YFDMbl9OFMeH551+G0+WCVq3CvffdjXvvvfucn3XJpdiXksBSCiHWz1Y8G9mzfTY+ChLnypspm1Se7HHLRWSewDK7LlVXLhJPZoUZF0tixvnk//GPfwyP14dU0Sy8vnkXdOShiuA3WlopFP3mQ+vw+m+fwz9QLG0yTfwQTpJC1ZE77kBwE00KlFd75ZXCQhhv7PD/7ncIsXWORgUyi9KoFyxAGVnzbIzrAZO4s6ODYtVRKqlCYXERqspL0dXdjfe3bsbIiJ9i0BDi0RBGHA6E4jIoVQosqDGiWBVEJEyxsbIUPnUVZKYKFFTOhLl4HipmXglr+eXoj5Th5EAUHxzqxe6jPTjd6ybLaiD3dxZmzVuEsLEGXnUJhr0xeKn+a5bNRmmRCT53CPxLLoMjw/CHeXunHc1HjgrE0esMNBlEhfeCufnNHlkKK6WojInc6/OF1KKzOFOzUmRjslXsjwJS48Ku/kSTixRyjaPUC/imArbCUsT6c+MrX/kK2k6fQp1ViflzZpBMZ+NjfpXOqMeHjftbMXN2PX5Ese5kYOIWbtwIC8W8Cn6V84YNcHzpS/A99xyMn/wkCn7zG+T/8IfCri5xNoy1tUk+ijhutNgNbVqxHEuXLkYJEZgfxOe3fMSiKRw+1IoTJ0+jt78HTopp+4fc2L79INraupBviWNpbQo1RVrE9LVQlFyNuGURelGNzlgZvEkbjPmV0NlrkVdeR/FtHWqqKlFUUgyryYK8okoo8uthrLwSluqVSBnycdWapVjUMAd9nW74/CHIlSnh9lZHxxA2b96GA4cOCk8sqbUacqXtwm/BHjt2jJTn7AXP+DgO7DJJGMgLhtStI5EMUi5bLrk+KuRqfzIXVgo8jpIT1QX2UWpFmu/l/ikgZe1z6QW/1P2Xz/wK2zaux6r6SpgMhnETFT/V9N7Og6T3pQKpjx/njUwTT2S8kcm1ejX0ZHWta9fSQEYRoM/DDzwguNt8e8r+y1+i+M03Yfna14RV7dipU+nSZ3FOTMwIkK/Oi0/f+/5T5FafgdlsQw/Fo4sX1sJuViPscyPfViC8saO83IyGxTVIUax6uk+H/9wwDFfUDBV1MII4Uho99Bob1PwrDuEhGJOdKNWEoYh7YbEoiZgaeFGMmLaKBlWJElMYcyuCuKLBiCjNbqOeKFl/qtPlxYkzA2g+3kmjrxa8BAWofCgEs8mIqsoyPP7Zx1BLE4Towk7FZbwUkHKZxWHlP9JEHu9uZuJ83OJMTLXcxeSTcjenUp9UnmyXWCrPmHfAGzImLss4H/c4l8yTbcjZsmULXnvtNRQ2Xo6X3vkA/LpZEXGq1Ejk/sxNK3B83/v4u29+K+fLG3lsdlIM/NOf/hRmMmb/+LWvQ0dh7Mh3vztuFZyfcDI9/riwwi28a4sVN6vjkuLyUxj8pAbvtjKbrJArVGQJ5dDqjWhY0ASTtQQmixk1s6rhcPnJlXVDS7NPQ5UKD95YhFp7GGbh1w5tUMr10BktSNDgBsJyhBIzMZBqgFM9F6d8NvTJqpGwL4VSbUG+0oFVsyJoyA/B3dtG1rULx0+cxI5dB9DRO4j5C5uwbPkKxOnCyEAxCbFg9qw6fPtbf4u//cY3UFNTM45QuZT+UhJYyuJkWiYWh1dss3Gh7ualgJQ7fzEua67J6HytsRSpLsQ7mAy5CMyYzOjzopWGjEhe0otFc+oQDEfTKVQnkYtfLrnpSAdmzG3Ez37203TKuejv78fvX3kZt9/3IOZU1eDJn/wE6m9+E3qaJIpWrSIDReNKR2jXLow8+ij6m5qQdLnOITAjpzrv2LlLePmc0+lAV1cbkrIkTp/uFt7gYS0oxJHjJ3Hk2FF09XVh26bdaGnuhWvYi2vmmvHA5Tpc1RjD7KIoyvRRmJVB5OeZqFwFQnI1gik5ZJoSKLSVNLMoYU524KZFwL1XUQxujgBhD3r7nGT9R9Hd2YcIzY6zGuajuKIaLmo/L99G8XdI+NG2W9behMbGBuGhDX7qKRMfBU2kXenxmiA1afy5Xeq/NDCxssFWmCeIHHPxlMCWmS20ePAkn4vAUwmzuPwPnnwSO7dtxpWN1Siy20j2sxdTTcbs4PFTUNvLEQ6G0Jr1sjsGb0566Xe/xbLLr8Zru05QGDkPN667FQ89/jlsJXIbtm+H/m/+Rvih/XQBYfU6SG61FCTdacb+Awfxi1/8Eh3tXVCpVVDptDh1ohW1NQVYd/Ma9HYMUqB/DPZ8/lXEoHARli69DBUFBSgsMSJCpO8ejAPaEnQO8u8Sa3FmMAAHdUwnC6Oh0AitNo6yknwsnGODJuHB4YOHMTLkJDKm4An4EQ2kEI2kUDqjDhV0vPveHrSeakNRYb7wKGM8Eceqyy/DX5MbLfUcsZR7xchloS8EUq50tqvMhJWyKLlc6lyWYjK5p1puqm6nVH1S+XL1b7KV7kyXeKJxnKysiFzXeyrIdX87F1paWvCjf3wKy9feh/9+eSOR9+wPqPG6TB55qg/f0IR9W9/G33/nu8IrpERs3boVbrKqx93A82+8CxV1hN/NddflDXjh2V9g2eor8Tef/7zwilr3XXfBv3evYJDMjzwixMjZyElini0ONx9BLBrHs889j3fe3YyaSg7oyY1NBXH99TfCPxpAV8dRVFQYEfCFaaB1yDObKGSVQatJkCutROP8xTDmFSCaiOKDXScRTpqF7ZRVJj+54xU08DoE3A4cO34cbWd6hRfp+UIB9Pb0QyHTomnlKlTNmI0tO/Zgf/Nh2Cm495ILL5cpUFpehPo5s/CZz3xa8qGHPzWJpZSXlUFqxVZKyaUUkTFVMmZjquWkxkVKiaXqkyQ7jYNUnzMnqYmIKJWWuSlmorKZuFASS/VpKvjtb3+Djo4uDKsK8M4HB2DUn729GY7GsKxhNpaW6oSf/v3s5x4XNiTx5qZf//pZaMvr8avX3yOOyImgvJMsgYqSAnznc/cS8Teid3AIT5HFT3m9wqq1/ze/gZni4vxf/CLdwlnk7DGvxi1ZvAhNTcuIsPzW+RRUGiVdLC36+kax6d1NMFiNFOsa0Hy0G8FgFEePtKC5uQUnTrZiwOGGXGvC8ZY2HNy9Dz0dHYh621Fl8SIvNQzHQCeOHNqL7e9vxq69R9Hezps2NIiHA2g9cYrcbDWWr7oCJVW12PjuVhw5epLiczN1NgK1Vo1bb12L66+7Brfcsi7nU0uZN+QzcalcWanYkjdPMGGzDyn8ueJiqXGZypbRXMg1ueQY/g8hpmcTlJFrzC4lmLzsLVwIgRl3330PwmRwVs4qxbxZtVQfeZ5p8N6FvcdOwauwCG+74Z9F4veqP/M/T8NeNQe/f28XjRspIjXNFlytUuB0Vy9C8QR0Wu2HP9UrM5th//nPYf+P/4CirIwHWzifiZyWOBPPPfc/WL/+LZxoaUcoGEdhUTFd9BT0RhX6B50Y7BnGwsYq4a2UPoqha6sLMHv2TLK4OoRCERhJKH7Ru5xm+lFnQHCxfD43YpEEguE4xdsyGAx65NnMGPWGyeoegsFswzVXXQmH04+jx0+gsMBOaV709PXitltuwg+///1Jb6jnshBT2fo4FeTa8XQ+kBr+qVrUbEy1XC73N3tlVqo+KaslNQ7Z+aTqYgKxaNnns63sxVhi9jDG3aKij/ztUi1u8gM3Lz7/PCw1DfiP375JuhWj9sYq53FXazT4zLpV2PvuGyRLDFdfdwNeP9iNM929Qvws5KOD38219uoVuGpWIVqOH8Ojn/60sBMxE/wU1KQvypNCLBbF6HAfVi+bi2Xza0koObwU1/Lv/DvcPnKvLSguKUNJZR2WNa3AjDlzYC8shdsTxbZtu7GXZqCtu3ah5UwrPL44DjSfRkt7J2LkancPjiIQCROR+XU8UbgCSSQ1ZigM+Ygk1dj6wT6cprz8Cw9uInDA70N5cQHMRHie1SZDrpVG3vc7CR8mBZe/WAIzMtZEPjLkUmAm1fmCCSY1DlK31aQgNelkk/NiwNae6/vwIFEvFYEZfAtp1erVOLxlA669bCGNx9kLyhaWd3ntbe3DNUTeouJitPvJ4nb2fEhgBu/4mlFVhruvXoyiQju+9OUvn0NghhSBGZN2Z8+OLfAMD0IZj2JV00xyYedBr4thsK9PeCWOxWIga5dCf28vDZJCeMVPUWkdQjE1dFY7udRkjQNxDPV5sWHDDnT3OtHbPQTvKN8ntqKACD+vYRlWXXElFjQugJUmhSrqbFVFIfLtecK0GSSie3xe1NYU4YoVi+AZdWLzlk3CrDcR+AKyRZACz9oXg1wuObeX65CC1Or2RwG2ZNlgMkqdzwUpK8oYs37pLxNAKpz4KB8/vFSYP38+SsnVvWJuOebOqKZrfdat5u2ZOw8ew0hSh6VrbsWbW3fRmJ2dpTgk459++V+fug3xgI/qWpBOmTomdad/8g/fQX/nabJ+GlTPKENClkBnjxe7drdixOFBigjMmzQKC/KFWSjPZkJZeR7MRgMphRIKmif4vVzDIw689c4eeAMB3HjjZViyqB42S4kw+/vDISG9ra0dHe190OrNiNF/wWgcIyNumhxiWFg/ExVlJfB6PXA5nSgpq8D3n/wn4U37EyGX68gQF6EuZGaeiguZjVzud/YlmKpbnI3zLZdLHnFcuFh2fdxHTmMC5npUMHNVWkQu2TIhtbjGuBh3erJrcqnAvyL6wx98H9WLVuHff/cOGbizq9VMVCYzP3Mv/CBDenCEBx0ozxMP3A5TxIWbb74JU/mt7WxMSuJN72zAG6+8iFjYh7raUrKQFTTL6ojMKmx5n93kLnKdfbDm5aN/wAOD0USDFkHTslm47abLoUwmEElEYbHqcXh/q/ALiavWrCAFUaC1uQ11NaU4fLoNb/5xD+RKg/CrESqFDq6REahJwYqL81BRng81KU6cSM0/IRklrwApNR54+FFcf8PNaUlzgy/4RM/LinFTeswFCINC//AF4IWgbIURL1AmpBQrE2xlpBQ/W+k/KhLz6am6vVNFrh1PUyGxFPkZHwcSM/bv348Nb74FFM3C79/dAb1GNaZHhLEXCrDBOCuLECOTC37fFfMQCocnfPppIkgM2XhccdW1uP2eB6C12DAw7MSJk2ewddt2tJ85hWuuXoj771uLObOqyZL2Ixz3I66Iw+EJ4OjhDshjCZTZVcjTRjCvxo671jbgwXsvw4pltTBrZcg3hFFZJIdreAS9fQ6B4MFQVPj1CH7ZQP2sMiyqr4LdYkRxYQkKC/MRi0QQDCaQV1iIquqatJQTgxWAiZoLbI04j7iSzAdbGz7HSpFNglxx7GQWPfdq+cTk/FOBxeG2Jxqb88FkWxYnApNtsvH7S8fSpUshTyVRohn7TaZQ5OxuLra+mQRml7uytAiPrFuNV155GU1NTemU88eUVqf5nvHgQB/efP13ON1yHJFQGFazEaNuJxRqBebMnk2KkCCr3I29R07C6wnCpNfgiUdvRG2RDs4RD6IJDeIyct90cviJpImYHEX5JuFW0tO/2y68DMBs1MJmMgrvn16xspHc6Qj2722GQiYX9m939w2Sb6xEY+N83HX3PZgzp17SIuaC1Ew9FWS7ebnqmcJQ5pQ3s+xHZYkzwWXZRZZyryfDVFb7c8kmIvOecjakyv4lWmIG7yJ8/LHP4Mpb78Nz7+xGkELFzLdkMgSrTJ391//9WWx+7be488470Uhx9YViSiQW4XQM4+03/oAjB3YjSS4yv7RdqVKRq0qjSTNQdV0VuQURjDr96OzrRS3FxjYi5ki/C8fO9KOwohINM2uw+4OtsNmtaJhThzAN8gcH2oX7zHU1JVi+ZKFQd0d3B5yjfpokdBh1BYj4AeiNZlx3/Q1Ye/Na4cml8yGwCLai7Ladr7JmDpNUu1O9bZXLtc90Jf8cJBbBWVnHOIzgz1LjJFhNGgMehqlaz4lILPUgfiY+TiRmbNu2Da/+/hXYG1bh95t2Cru5MsFu9B3Xr0KDjQxZSQlWrVqVTrkwnBeJGfzLg9/++hOIR3woJXdAraH4ddQn/DpERVURaByRSsgxe0Ypejp60Tc4il5ylx2jQTSWFaDKosaRnn4obSZhc4dFZYLOkg+5Roma6kr09AzAR4Tt7RkUHnQoKStCiDptMFhww823YR0/OH0J/C4mM8/+uRRVhKiwosLkWiibqivJ7UopbKYi/zlJnAmp+i6UFBOR+EL69ZdMYu7PT/71X6DUGnBoOI59R09Crx1bsAqQF7u0YQ4eunYR+shQPfDAg8L5i8F5s6G/rxNGsx4KssCnTrbScQxatQyzZtfSQCcQ8PkRCMfQfPgYopEYSkoKUFZehIZZNSiWqeBv6UCRtQBmWxFZaTPKyvLhcQ/jDNV14ngLxdpdGHV4UF5WBbnaiENH6PyJk6iuqhIC/0tBYAYTji8uu8k86GwJMw8+xwfnyVQWbl5MyzymGgtyPqnymcTm9qTyTIYLLfdRIJdsfEwGqbKZ10QEX6vsfB81gRnsqX3xiS/hePMBXLdoBoWNeTR5J2mSiWNmdTkeWXs5Nv9xI+655950iYvDeTOiq7MLOoMRKo0WNXU1mL9wAZRqJfYcPIaDR9uQbzGivNCGlEKNlq4htLd2oygcxUyZGo52N3q7gyhKyjCbYmFNABh0BRGKQfi5Ur/PC5PVAo8/hKMnjkMlT2DR/LmonzNHeG44GDj3bYKXCkzOzGMa0uT5c5Di4wjeJ/3Nb30bm177De68doXgQrMBevQT1+HUoT144MHcv9t0vjhvd7q7qxOHDu7Bnp2bEQ0HYSDydXX2IBSSw2LVwu93YHgkCHueQVgQajnWifxwGJVE6ngwjmgqCr1Bhhh1oEcmh62mCPaCQsoL9A05iMhB1NSWobq8DAGvHxqjCim5CjNn1OP+hx5FAeWdxjQ+LuD4eMvWbfCaqoRf8lwzt1gg9Jo1a9I5Lh7nTWIG/y7NsaOH0HrqBA4f2Cf8oqFBp8fw8CDcgSCSMRnsFPsmiLAn20egIoKX8HmfDylZEmGFEt3kV+rsRtTPqyT3W4HW1k5UVRRRRy3Cy+8qaiqpnTi57ibcdPNaLFywCOUVlRe0mDWNafy5wPR66qmnUFc/Hxwxvf36q/jF00+TlyMRD1wgLojEIniXSmdHG3q623Hk4G50dHbD44kgSKROKKLC/uaAN4Jacx7CPcPo8wbIRVagQKmCK1+HlEaO/AIDUiod4uEE7DYT8myFGKW4et78BWhasZJi4wrU1dWlW5zGND5+4Nddff6vHxd+Zujue+5BQ0NDOuXS4KJILIJfqOcnK9vT3YkN69dj9+49cPs8GHV5kG+zQE8t9HUPYDSeRCqZQoFGjbzKYgTIhw5H/MLrgPgXHGbNnoubb1qLyupKVFZWTfqU0jSm8XGBi7zL9957D5/85CfTZy4dLgmJM+F2jyIYDCGZTOCP77yLF154AQMDfcLLv1QqLaLROGIUE5hMeliJ4PVz5wrvxqqvr8eSJUuIvGM/9TiNaUxjarjkJM4Eb/Z+4/U3sHvPbiGO5gck+FCqlDDo9Vi6dAnWrl0rxAd8ZP5ywzSmMY2pAPj/AOODoxRS+r5VAAAAAElFTkSuQmCC;" parent="1" vertex="1">
          <mxGeometry width="241" height="61" as="geometry" />
        </mxCell>
        <mxCell id="5dkqcwTEzAObQUoqJW9d-48" value="&lt;font style=&quot;font-size: 20px&quot;&gt;&lt;b&gt;Унифицированная установка для испытаний&lt;br&gt;охлаждаемых ФЭПП и ФПУ на ресурс&lt;/b&gt;&lt;/font&gt;" style="text;whiteSpace=wrap;html=1;align=center;verticalAlign=middle;" vertex="1" parent="1">
          <mxGeometry x="289" width="465" height="60" as="geometry" />
        </mxCell>
        <mxCell id="5dkqcwTEzAObQUoqJW9d-57" value="&lt;span style=&quot;font-size: 24px&quot;&gt;Список ошибок&lt;/span&gt;" style="text;html=1;resizable=0;autosize=1;align=left;verticalAlign=middle;points=[];fillColor=none;strokeColor=none;rounded=0;" vertex="1" parent="1">
          <mxGeometry x="431.5" y="120" width="180" height="22" as="geometry" />
        </mxCell>
        <mxCell id="5dkqcwTEzAObQUoqJW9d-62" value="" style="rounded=0;whiteSpace=wrap;html=1;gradientDirection=west;gradientColor=#ffffff;fillColor=#808080;" vertex="1" parent="1">
          <mxGeometry y="319" width="240" height="100" as="geometry" />
        </mxCell>
        <mxCell id="5dkqcwTEzAObQUoqJW9d-63" value="" style="rounded=0;whiteSpace=wrap;html=1;gradientDirection=west;gradientColor=#ffffff;fillColor=#808080;" vertex="1" parent="1">
          <mxGeometry y="120" width="240" height="100" as="geometry" />
        </mxCell>
        <mxCell id="5dkqcwTEzAObQUoqJW9d-64" value="" style="rounded=0;whiteSpace=wrap;html=1;gradientDirection=west;gradientColor=#ffffff;fillColor=#808080;" vertex="1" parent="1">
          <mxGeometry y="419" width="240" height="100" as="geometry" />
        </mxCell>
        <mxCell id="5dkqcwTEzAObQUoqJW9d-65" value="" style="rounded=0;whiteSpace=wrap;html=1;gradientDirection=west;gradientColor=#ffffff;fillColor=#808080;" vertex="1" parent="1">
          <mxGeometry y="220" width="240" height="100" as="geometry" />
        </mxCell>
        <mxCell id="5dkqcwTEzAObQUoqJW9d-66" value="&lt;font style=&quot;font-size: 24px&quot;&gt;Журнал ошибок&lt;/font&gt;" style="rounded=1;whiteSpace=wrap;html=1;fillColor=#B3B3B3;" vertex="1" parent="1">
          <mxGeometry x="10.5" y="435" width="220" height="68" as="geometry" />
        </mxCell>
        <mxCell id="5dkqcwTEzAObQUoqJW9d-67" value="&lt;font style=&quot;font-size: 24px&quot;&gt;Программа испытаний&lt;/font&gt;" style="rounded=1;whiteSpace=wrap;html=1;fillColor=#B3B3B3;" vertex="1" parent="1">
          <mxGeometry x="10" y="335" width="220" height="68" as="geometry" />
        </mxCell>
        <mxCell id="5dkqcwTEzAObQUoqJW9d-68" value="&lt;font style=&quot;font-size: 24px&quot;&gt;Информация о заказе&lt;/font&gt;" style="rounded=1;whiteSpace=wrap;html=1;fillColor=#B3B3B3;" vertex="1" parent="1">
          <mxGeometry x="10" y="236" width="220" height="68" as="geometry" />
        </mxCell>
        <mxCell id="5dkqcwTEzAObQUoqJW9d-69" value="&lt;font style=&quot;font-size: 24px&quot;&gt;Главная&lt;/font&gt;" style="rounded=1;whiteSpace=wrap;html=1;fillColor=#B3B3B3;" vertex="1" parent="1">
          <mxGeometry x="10" y="136" width="220" height="68" as="geometry" />
        </mxCell>
        <mxCell id="5dkqcwTEzAObQUoqJW9d-201" value="" style="shape=table;html=1;whiteSpace=wrap;startSize=0;container=1;collapsible=0;childLayout=tableLayout;" vertex="1" parent="1">
          <mxGeometry x="255" y="155" width="608" height="364" as="geometry" />
        </mxCell>
        <mxCell id="5dkqcwTEzAObQUoqJW9d-202" value="" style="shape=partialRectangle;html=1;whiteSpace=wrap;collapsible=0;dropTarget=0;pointerEvents=0;fillColor=none;top=0;left=0;bottom=0;right=0;points=[[0,0.5],[1,0.5]];portConstraint=eastwest;" vertex="1" parent="5dkqcwTEzAObQUoqJW9d-201">
          <mxGeometry width="608" height="37" as="geometry" />
        </mxCell>
        <mxCell id="5dkqcwTEzAObQUoqJW9d-203" value="&lt;font style=&quot;font-size: 18px&quot;&gt;Дата и время&lt;/font&gt;" style="shape=partialRectangle;html=1;whiteSpace=wrap;connectable=0;overflow=hidden;fillColor=none;top=0;left=0;bottom=0;right=0;" vertex="1" parent="5dkqcwTEzAObQUoqJW9d-202">
          <mxGeometry width="203" height="37" as="geometry" />
        </mxCell>
        <mxCell id="5dkqcwTEzAObQUoqJW9d-204" value="&lt;font style=&quot;font-size: 18px&quot;&gt;Тип ошибки&lt;/font&gt;" style="shape=partialRectangle;html=1;whiteSpace=wrap;connectable=0;overflow=hidden;fillColor=none;top=0;left=0;bottom=0;right=0;" vertex="1" parent="5dkqcwTEzAObQUoqJW9d-202">
          <mxGeometry x="203" width="202" height="37" as="geometry" />
        </mxCell>
        <mxCell id="5dkqcwTEzAObQUoqJW9d-205" value="&lt;font style=&quot;font-size: 18px&quot;&gt;Причина&lt;/font&gt;" style="shape=partialRectangle;html=1;whiteSpace=wrap;connectable=0;overflow=hidden;fillColor=none;top=0;left=0;bottom=0;right=0;" vertex="1" parent="5dkqcwTEzAObQUoqJW9d-202">
          <mxGeometry x="405" width="203" height="37" as="geometry" />
        </mxCell>
        <mxCell id="5dkqcwTEzAObQUoqJW9d-206" value="" style="shape=partialRectangle;html=1;whiteSpace=wrap;collapsible=0;dropTarget=0;pointerEvents=0;fillColor=none;top=0;left=0;bottom=0;right=0;points=[[0,0.5],[1,0.5]];portConstraint=eastwest;" vertex="1" parent="5dkqcwTEzAObQUoqJW9d-201">
          <mxGeometry y="37" width="608" height="36" as="geometry" />
        </mxCell>
        <mxCell id="5dkqcwTEzAObQUoqJW9d-207" value="DD.MM.YYYY HH:MM" style="shape=partialRectangle;html=1;whiteSpace=wrap;connectable=0;overflow=hidden;fillColor=none;top=0;left=0;bottom=0;right=0;" vertex="1" parent="5dkqcwTEzAObQUoqJW9d-206">
          <mxGeometry width="203" height="36" as="geometry" />
        </mxCell>
        <mxCell id="5dkqcwTEzAObQUoqJW9d-208" value="&lt;font style=&quot;font-size: 14px&quot;&gt;Нарушение регламента проведения испытаний&lt;/font&gt;" style="shape=partialRectangle;html=1;whiteSpace=wrap;connectable=0;overflow=hidden;fillColor=none;top=0;left=0;bottom=0;right=0;" vertex="1" parent="5dkqcwTEzAObQUoqJW9d-206">
          <mxGeometry x="203" width="202" height="36" as="geometry" />
        </mxCell>
        <mxCell id="5dkqcwTEzAObQUoqJW9d-209" value="Подача давления в режиме &quot;Отдых&quot;" style="shape=partialRectangle;html=1;whiteSpace=wrap;connectable=0;overflow=hidden;fillColor=none;top=0;left=0;bottom=0;right=0;" vertex="1" parent="5dkqcwTEzAObQUoqJW9d-206">
          <mxGeometry x="405" width="203" height="36" as="geometry" />
        </mxCell>
        <mxCell id="5dkqcwTEzAObQUoqJW9d-210" value="" style="shape=partialRectangle;html=1;whiteSpace=wrap;collapsible=0;dropTarget=0;pointerEvents=0;fillColor=none;top=0;left=0;bottom=0;right=0;points=[[0,0.5],[1,0.5]];portConstraint=eastwest;" vertex="1" parent="5dkqcwTEzAObQUoqJW9d-201">
          <mxGeometry y="73" width="608" height="36" as="geometry" />
        </mxCell>
        <mxCell id="5dkqcwTEzAObQUoqJW9d-211" value="&lt;span&gt;DD.MM.YYYY HH:MM&lt;/span&gt;" style="shape=partialRectangle;html=1;whiteSpace=wrap;connectable=0;overflow=hidden;fillColor=none;top=0;left=0;bottom=0;right=0;" vertex="1" parent="5dkqcwTEzAObQUoqJW9d-210">
          <mxGeometry width="203" height="36" as="geometry" />
        </mxCell>
        <mxCell id="5dkqcwTEzAObQUoqJW9d-212" value="&quot;Авария&quot;" style="shape=partialRectangle;html=1;whiteSpace=wrap;connectable=0;overflow=hidden;fillColor=none;top=0;left=0;bottom=0;right=0;" vertex="1" parent="5dkqcwTEzAObQUoqJW9d-210">
          <mxGeometry x="203" width="202" height="36" as="geometry" />
        </mxCell>
        <mxCell id="5dkqcwTEzAObQUoqJW9d-213" value="Нажата кнопка &quot;Аварии&quot;" style="shape=partialRectangle;html=1;whiteSpace=wrap;connectable=0;overflow=hidden;fillColor=none;top=0;left=0;bottom=0;right=0;" vertex="1" parent="5dkqcwTEzAObQUoqJW9d-210">
          <mxGeometry x="405" width="203" height="36" as="geometry" />
        </mxCell>
        <mxCell id="5dkqcwTEzAObQUoqJW9d-214" value="" style="shape=partialRectangle;html=1;whiteSpace=wrap;collapsible=0;dropTarget=0;pointerEvents=0;fillColor=none;top=0;left=0;bottom=0;right=0;points=[[0,0.5],[1,0.5]];portConstraint=eastwest;" vertex="1" parent="5dkqcwTEzAObQUoqJW9d-201">
          <mxGeometry y="109" width="608" height="37" as="geometry" />
        </mxCell>
        <mxCell id="5dkqcwTEzAObQUoqJW9d-215" value="" style="shape=partialRectangle;html=1;whiteSpace=wrap;connectable=0;overflow=hidden;fillColor=none;top=0;left=0;bottom=0;right=0;" vertex="1" parent="5dkqcwTEzAObQUoqJW9d-214">
          <mxGeometry width="203" height="37" as="geometry" />
        </mxCell>
        <mxCell id="5dkqcwTEzAObQUoqJW9d-216" value="" style="shape=partialRectangle;html=1;whiteSpace=wrap;connectable=0;overflow=hidden;fillColor=none;top=0;left=0;bottom=0;right=0;" vertex="1" parent="5dkqcwTEzAObQUoqJW9d-214">
          <mxGeometry x="203" width="202" height="37" as="geometry" />
        </mxCell>
        <mxCell id="5dkqcwTEzAObQUoqJW9d-217" value="" style="shape=partialRectangle;html=1;whiteSpace=wrap;connectable=0;overflow=hidden;fillColor=none;top=0;left=0;bottom=0;right=0;" vertex="1" parent="5dkqcwTEzAObQUoqJW9d-214">
          <mxGeometry x="405" width="203" height="37" as="geometry" />
        </mxCell>
        <mxCell id="5dkqcwTEzAObQUoqJW9d-218" value="" style="shape=partialRectangle;html=1;whiteSpace=wrap;collapsible=0;dropTarget=0;pointerEvents=0;fillColor=none;top=0;left=0;bottom=0;right=0;points=[[0,0.5],[1,0.5]];portConstraint=eastwest;" vertex="1" parent="5dkqcwTEzAObQUoqJW9d-201">
          <mxGeometry y="146" width="608" height="36" as="geometry" />
        </mxCell>
        <mxCell id="5dkqcwTEzAObQUoqJW9d-219" value="" style="shape=partialRectangle;html=1;whiteSpace=wrap;connectable=0;overflow=hidden;fillColor=none;top=0;left=0;bottom=0;right=0;" vertex="1" parent="5dkqcwTEzAObQUoqJW9d-218">
          <mxGeometry width="203" height="36" as="geometry" />
        </mxCell>
        <mxCell id="5dkqcwTEzAObQUoqJW9d-220" value="" style="shape=partialRectangle;html=1;whiteSpace=wrap;connectable=0;overflow=hidden;fillColor=none;top=0;left=0;bottom=0;right=0;" vertex="1" parent="5dkqcwTEzAObQUoqJW9d-218">
          <mxGeometry x="203" width="202" height="36" as="geometry" />
        </mxCell>
        <mxCell id="5dkqcwTEzAObQUoqJW9d-221" value="" style="shape=partialRectangle;html=1;whiteSpace=wrap;connectable=0;overflow=hidden;fillColor=none;top=0;left=0;bottom=0;right=0;" vertex="1" parent="5dkqcwTEzAObQUoqJW9d-218">
          <mxGeometry x="405" width="203" height="36" as="geometry" />
        </mxCell>
        <mxCell id="5dkqcwTEzAObQUoqJW9d-222" value="" style="shape=partialRectangle;html=1;whiteSpace=wrap;collapsible=0;dropTarget=0;pointerEvents=0;fillColor=none;top=0;left=0;bottom=0;right=0;points=[[0,0.5],[1,0.5]];portConstraint=eastwest;" vertex="1" parent="5dkqcwTEzAObQUoqJW9d-201">
          <mxGeometry y="182" width="608" height="36" as="geometry" />
        </mxCell>
        <mxCell id="5dkqcwTEzAObQUoqJW9d-223" value="" style="shape=partialRectangle;html=1;whiteSpace=wrap;connectable=0;overflow=hidden;fillColor=none;top=0;left=0;bottom=0;right=0;" vertex="1" parent="5dkqcwTEzAObQUoqJW9d-222">
          <mxGeometry width="203" height="36" as="geometry" />
        </mxCell>
        <mxCell id="5dkqcwTEzAObQUoqJW9d-224" value="" style="shape=partialRectangle;html=1;whiteSpace=wrap;connectable=0;overflow=hidden;fillColor=none;top=0;left=0;bottom=0;right=0;" vertex="1" parent="5dkqcwTEzAObQUoqJW9d-222">
          <mxGeometry x="203" width="202" height="36" as="geometry" />
        </mxCell>
        <mxCell id="5dkqcwTEzAObQUoqJW9d-225" value="" style="shape=partialRectangle;html=1;whiteSpace=wrap;connectable=0;overflow=hidden;fillColor=none;top=0;left=0;bottom=0;right=0;" vertex="1" parent="5dkqcwTEzAObQUoqJW9d-222">
          <mxGeometry x="405" width="203" height="36" as="geometry" />
        </mxCell>
        <mxCell id="5dkqcwTEzAObQUoqJW9d-226" value="" style="shape=partialRectangle;html=1;whiteSpace=wrap;collapsible=0;dropTarget=0;pointerEvents=0;fillColor=none;top=0;left=0;bottom=0;right=0;points=[[0,0.5],[1,0.5]];portConstraint=eastwest;" vertex="1" parent="5dkqcwTEzAObQUoqJW9d-201">
          <mxGeometry y="218" width="608" height="37" as="geometry" />
        </mxCell>
        <mxCell id="5dkqcwTEzAObQUoqJW9d-227" value="" style="shape=partialRectangle;html=1;whiteSpace=wrap;connectable=0;overflow=hidden;fillColor=none;top=0;left=0;bottom=0;right=0;" vertex="1" parent="5dkqcwTEzAObQUoqJW9d-226">
          <mxGeometry width="203" height="37" as="geometry" />
        </mxCell>
        <mxCell id="5dkqcwTEzAObQUoqJW9d-228" value="" style="shape=partialRectangle;html=1;whiteSpace=wrap;connectable=0;overflow=hidden;fillColor=none;top=0;left=0;bottom=0;right=0;" vertex="1" parent="5dkqcwTEzAObQUoqJW9d-226">
          <mxGeometry x="203" width="202" height="37" as="geometry" />
        </mxCell>
        <mxCell id="5dkqcwTEzAObQUoqJW9d-229" value="" style="shape=partialRectangle;html=1;whiteSpace=wrap;connectable=0;overflow=hidden;fillColor=none;top=0;left=0;bottom=0;right=0;" vertex="1" parent="5dkqcwTEzAObQUoqJW9d-226">
          <mxGeometry x="405" width="203" height="37" as="geometry" />
        </mxCell>
        <mxCell id="5dkqcwTEzAObQUoqJW9d-230" value="" style="shape=partialRectangle;html=1;whiteSpace=wrap;collapsible=0;dropTarget=0;pointerEvents=0;fillColor=none;top=0;left=0;bottom=0;right=0;points=[[0,0.5],[1,0.5]];portConstraint=eastwest;" vertex="1" parent="5dkqcwTEzAObQUoqJW9d-201">
          <mxGeometry y="255" width="608" height="36" as="geometry" />
        </mxCell>
        <mxCell id="5dkqcwTEzAObQUoqJW9d-231" value="" style="shape=partialRectangle;html=1;whiteSpace=wrap;connectable=0;overflow=hidden;fillColor=none;top=0;left=0;bottom=0;right=0;" vertex="1" parent="5dkqcwTEzAObQUoqJW9d-230">
          <mxGeometry width="203" height="36" as="geometry" />
        </mxCell>
        <mxCell id="5dkqcwTEzAObQUoqJW9d-232" value="" style="shape=partialRectangle;html=1;whiteSpace=wrap;connectable=0;overflow=hidden;fillColor=none;top=0;left=0;bottom=0;right=0;" vertex="1" parent="5dkqcwTEzAObQUoqJW9d-230">
          <mxGeometry x="203" width="202" height="36" as="geometry" />
        </mxCell>
        <mxCell id="5dkqcwTEzAObQUoqJW9d-233" value="" style="shape=partialRectangle;html=1;whiteSpace=wrap;connectable=0;overflow=hidden;fillColor=none;top=0;left=0;bottom=0;right=0;" vertex="1" parent="5dkqcwTEzAObQUoqJW9d-230">
          <mxGeometry x="405" width="203" height="36" as="geometry" />
        </mxCell>
        <mxCell id="5dkqcwTEzAObQUoqJW9d-234" value="" style="shape=partialRectangle;html=1;whiteSpace=wrap;collapsible=0;dropTarget=0;pointerEvents=0;fillColor=none;top=0;left=0;bottom=0;right=0;points=[[0,0.5],[1,0.5]];portConstraint=eastwest;" vertex="1" parent="5dkqcwTEzAObQUoqJW9d-201">
          <mxGeometry y="291" width="608" height="36" as="geometry" />
        </mxCell>
        <mxCell id="5dkqcwTEzAObQUoqJW9d-235" value="" style="shape=partialRectangle;html=1;whiteSpace=wrap;connectable=0;overflow=hidden;fillColor=none;top=0;left=0;bottom=0;right=0;" vertex="1" parent="5dkqcwTEzAObQUoqJW9d-234">
          <mxGeometry width="203" height="36" as="geometry" />
        </mxCell>
        <mxCell id="5dkqcwTEzAObQUoqJW9d-236" value="" style="shape=partialRectangle;html=1;whiteSpace=wrap;connectable=0;overflow=hidden;fillColor=none;top=0;left=0;bottom=0;right=0;" vertex="1" parent="5dkqcwTEzAObQUoqJW9d-234">
          <mxGeometry x="203" width="202" height="36" as="geometry" />
        </mxCell>
        <mxCell id="5dkqcwTEzAObQUoqJW9d-237" value="" style="shape=partialRectangle;html=1;whiteSpace=wrap;connectable=0;overflow=hidden;fillColor=none;top=0;left=0;bottom=0;right=0;" vertex="1" parent="5dkqcwTEzAObQUoqJW9d-234">
          <mxGeometry x="405" width="203" height="36" as="geometry" />
        </mxCell>
        <mxCell id="5dkqcwTEzAObQUoqJW9d-238" value="" style="shape=partialRectangle;html=1;whiteSpace=wrap;collapsible=0;dropTarget=0;pointerEvents=0;fillColor=none;top=0;left=0;bottom=0;right=0;points=[[0,0.5],[1,0.5]];portConstraint=eastwest;" vertex="1" parent="5dkqcwTEzAObQUoqJW9d-201">
          <mxGeometry y="327" width="608" height="37" as="geometry" />
        </mxCell>
        <mxCell id="5dkqcwTEzAObQUoqJW9d-239" value="" style="shape=partialRectangle;html=1;whiteSpace=wrap;connectable=0;overflow=hidden;fillColor=none;top=0;left=0;bottom=0;right=0;" vertex="1" parent="5dkqcwTEzAObQUoqJW9d-238">
          <mxGeometry width="203" height="37" as="geometry" />
        </mxCell>
        <mxCell id="5dkqcwTEzAObQUoqJW9d-240" value="" style="shape=partialRectangle;html=1;whiteSpace=wrap;connectable=0;overflow=hidden;fillColor=none;top=0;left=0;bottom=0;right=0;" vertex="1" parent="5dkqcwTEzAObQUoqJW9d-238">
          <mxGeometry x="203" width="202" height="37" as="geometry" />
        </mxCell>
        <mxCell id="5dkqcwTEzAObQUoqJW9d-241" value="" style="shape=partialRectangle;html=1;whiteSpace=wrap;connectable=0;overflow=hidden;fillColor=none;top=0;left=0;bottom=0;right=0;" vertex="1" parent="5dkqcwTEzAObQUoqJW9d-238">
          <mxGeometry x="405" width="203" height="37" as="geometry" />
        </mxCell>
      </root>
    </mxGraphModel>
  </diagram>
</mxfile>
